<svg width="672.5" height="1989.0" viewBox="0 0 672.5 1989.0" xmlns="http://www.w3.org/2000/svg">
<style>
    svg {
        font-family: SFMono-Regular,Consolas,Liberation Mono,Menlo,monospace;
        font-size: 14px;
        font-kerning: normal;
        text-rendering: optimizeLegibility;
        fill: #24292e;
    }

    rect {
        fill: #f6f8fa;
    }

    .hold {
        fill: #ff8080;
    }

    .combo_hold {
        fill: #ff8080;
    }

    .combo {
        fill: #79f2f2;
    }
    
    .number{
        fill: #bfc2c7
    }
</style>
<rect rx="6" ry="6" x="29.5" y="24.5" width="55" height="45" class="" />
<text text-anchor="middle" dominant-baseline="middle" x="57.0" y="47.0">q</text>
<rect rx="6" ry="6" x="88.5" y="24.5" width="55" height="45" class="" />
<text text-anchor="middle" dominant-baseline="middle" x="116.0" y="47.0">w</text>
<rect rx="6" ry="6" x="147.5" y="24.5" width="55" height="45" class="" />
<text text-anchor="middle" dominant-baseline="middle" x="175.0" y="47.0">e</text>
<rect rx="6" ry="6" x="206.5" y="24.5" width="55" height="45" class="" />
<text text-anchor="middle" dominant-baseline="middle" x="234.0" y="47.0">r</text>
<rect rx="6" ry="6" x="265.5" y="24.5" width="55" height="45" class="" />
<text text-anchor="middle" dominant-baseline="middle" x="293.0" y="47.0">t</text>
<rect rx="6" ry="6" x="29.5" y="73.5" width="55" height="45" class="" />
<text text-anchor="middle" dominant-baseline="middle" x="57.0" y="96.0">a</text>
<rect rx="6" ry="6" x="88.5" y="73.5" width="55" height="45" class="" />
<text text-anchor="middle" dominant-baseline="middle" x="116.0" y="96.0">s</text>
<rect rx="6" ry="6" x="147.5" y="73.5" width="55" height="45" class="" />
<text text-anchor="middle" dominant-baseline="middle" x="175.0" y="96.0">d</text>
<rect rx="6" ry="6" x="206.5" y="73.5" width="55" height="45" class="" />
<text text-anchor="middle" dominant-baseline="middle" x="234.0" y="96.0">f</text>
<rect rx="6" ry="6" x="265.5" y="73.5" width="55" height="45" class="" />
<text text-anchor="middle" dominant-baseline="middle" x="293.0" y="96.0">g</text>
<rect rx="6" ry="6" x="29.5" y="122.5" width="55" height="45" class="" />
<text text-anchor="middle" dominant-baseline="middle" x="57.0" y="145.0">z</text>
<rect rx="6" ry="6" x="88.5" y="122.5" width="55" height="45" class="" />
<text text-anchor="middle" dominant-baseline="middle" x="116.0" y="145.0">x</text>
<rect rx="6" ry="6" x="147.5" y="122.5" width="55" height="45" class="" />
<text text-anchor="middle" dominant-baseline="middle" x="175.0" y="145.0">c</text>
<rect rx="6" ry="6" x="206.5" y="122.5" width="55" height="45" class="" />
<text text-anchor="middle" dominant-baseline="middle" x="234.0" y="145.0">v</text>
<rect rx="6" ry="6" x="265.5" y="122.5" width="55" height="45" class="" />
<text text-anchor="middle" dominant-baseline="middle" x="293.0" y="145.0">b</text>
<rect rx="6" ry="6" x="352.0" y="24.5" width="55" height="45" class="" />
<text text-anchor="middle" dominant-baseline="middle" x="379.5" y="47.0">y</text>
<rect rx="6" ry="6" x="411.0" y="24.5" width="55" height="45" class="" />
<text text-anchor="middle" dominant-baseline="middle" x="438.5" y="47.0">u</text>
<rect rx="6" ry="6" x="470.0" y="24.5" width="55" height="45" class="" />
<text text-anchor="middle" dominant-baseline="middle" x="497.5" y="47.0">i</text>
<rect rx="6" ry="6" x="529.0" y="24.5" width="55" height="45" class="" />
<text text-anchor="middle" dominant-baseline="middle" x="556.5" y="47.0">o</text>
<rect rx="6" ry="6" x="588.0" y="24.5" width="55" height="45" class="" />
<text text-anchor="middle" dominant-baseline="middle" x="615.5" y="47.0">p</text>
<rect rx="6" ry="6" x="352.0" y="73.5" width="55" height="45" class="" />
<text text-anchor="middle" dominant-baseline="middle" x="379.5" y="96.0">j</text>
<rect rx="6" ry="6" x="411.0" y="73.5" width="55" height="45" class="" />
<text text-anchor="middle" dominant-baseline="middle" x="438.5" y="96.0">j</text>
<rect rx="6" ry="6" x="470.0" y="73.5" width="55" height="45" class="" />
<text text-anchor="middle" dominant-baseline="middle" x="497.5" y="96.0">k</text>
<rect rx="6" ry="6" x="529.0" y="73.5" width="55" height="45" class="" />
<text text-anchor="middle" dominant-baseline="middle" x="556.5" y="96.0">l</text>
<rect rx="6" ry="6" x="588.0" y="73.5" width="55" height="45" class="" />
<text text-anchor="middle" dominant-baseline="middle" x="615.5" y="96.0">;</text>
<rect rx="6" ry="6" x="352.0" y="122.5" width="55" height="45" class="" />
<text text-anchor="middle" dominant-baseline="middle" x="379.5" y="145.0">m</text>
<rect rx="6" ry="6" x="411.0" y="122.5" width="55" height="45" class="" />
<text text-anchor="middle" dominant-baseline="middle" x="438.5" y="145.0">n</text>
<rect rx="6" ry="6" x="470.0" y="122.5" width="55" height="45" class="" />
<text text-anchor="middle" dominant-baseline="middle" x="497.5" y="145.0">,</text>
<rect rx="6" ry="6" x="529.0" y="122.5" width="55" height="45" class="" />
<text text-anchor="middle" dominant-baseline="middle" x="556.5" y="145.0">.</text>
<rect rx="6" ry="6" x="588.0" y="122.5" width="55" height="45" class="" />
<text text-anchor="middle" dominant-baseline="middle" x="615.5" y="145.0">/</text>
<rect rx="6" ry="6" x="206.5" y="171.5" width="55" height="45" class="" />
<text text-anchor="middle" dominant-baseline="middle" x="234.0" y="194.0">bkspc</text>
<rect rx="6" ry="6" x="265.5" y="171.5" width="55" height="45" class="" />
<text text-anchor="middle" dominant-baseline="middle" x="293.0" y="194.0">esc</text>
<rect rx="6" ry="6" x="352.0" y="171.5" width="55" height="45" class="" />
<text text-anchor="middle" dominant-baseline="middle" x="379.5" y="194.0">enter</text>
<rect rx="6" ry="6" x="411.0" y="171.5" width="55" height="45" class="" />
<text text-anchor="middle" dominant-baseline="middle" x="438.5" y="194.0">space</text>
<rect rx="6" ry="6" x="29.5" y="243.0" width="55" height="45" class="" />
<text text-anchor="middle" dominant-baseline="middle" x="57.0" y="265.5">q</text>
<rect rx="6" ry="6" x="88.5" y="243.0" width="55" height="45" class="" />
<text text-anchor="middle" dominant-baseline="middle" x="116.0" y="265.5">w</text>
<rect rx="6" ry="6" x="147.5" y="243.0" width="55" height="45" class="" />
<text text-anchor="middle" dominant-baseline="middle" x="175.0" y="265.5">e</text>
<rect rx="6" ry="6" x="206.5" y="243.0" width="55" height="45" class="" />
<text text-anchor="middle" dominant-baseline="middle" x="234.0" y="265.5">r</text>
<rect rx="6" ry="6" x="265.5" y="243.0" width="55" height="45" class="" />
<text text-anchor="middle" dominant-baseline="middle" x="293.0" y="265.5">t</text>
<rect rx="6" ry="6" x="29.5" y="292.0" width="55" height="45" class="hold" />
<text text-anchor="middle" dominant-baseline="middle" x="57.0" y="314.5">ctrl</text>
<rect rx="6" ry="6" x="88.5" y="292.0" width="55" height="45" class="hold" />
<text text-anchor="middle" dominant-baseline="middle" x="116.0" y="314.5">alt</text>
<rect rx="6" ry="6" x="147.5" y="292.0" width="55" height="45" class="hold" />
<text text-anchor="middle" dominant-baseline="middle" x="175.0" y="314.5">cmd</text>
<rect rx="6" ry="6" x="206.5" y="292.0" width="55" height="45" class="hold" />
<text text-anchor="middle" dominant-baseline="middle" x="234.0" y="314.5">shift</text>
<rect rx="6" ry="6" x="265.5" y="292.0" width="55" height="45" class="" />
<text text-anchor="middle" dominant-baseline="middle" x="293.0" y="314.5">g</text>
<rect rx="6" ry="6" x="29.5" y="341.0" width="55" height="45" class="" />
<text text-anchor="middle" dominant-baseline="middle" x="57.0" y="363.5">z</text>
<rect rx="6" ry="6" x="88.5" y="341.0" width="55" height="45" class="" />
<text text-anchor="middle" dominant-baseline="middle" x="116.0" y="363.5">x</text>
<rect rx="6" ry="6" x="147.5" y="341.0" width="55" height="45" class="" />
<text text-anchor="middle" dominant-baseline="middle" x="175.0" y="363.5">c</text>
<rect rx="6" ry="6" x="206.5" y="341.0" width="55" height="45" class="" />
<text text-anchor="middle" dominant-baseline="middle" x="234.0" y="363.5">v</text>
<rect rx="6" ry="6" x="265.5" y="341.0" width="55" height="45" class="" />
<text text-anchor="middle" dominant-baseline="middle" x="293.0" y="363.5">b</text>
<rect rx="6" ry="6" x="352.0" y="243.0" width="55" height="45" class="" />
<text text-anchor="middle" dominant-baseline="middle" x="379.5" y="265.5">y</text>
<rect rx="6" ry="6" x="411.0" y="243.0" width="55" height="45" class="" />
<text text-anchor="middle" dominant-baseline="middle" x="438.5" y="265.5">u</text>
<rect rx="6" ry="6" x="470.0" y="243.0" width="55" height="45" class="" />
<text text-anchor="middle" dominant-baseline="middle" x="497.5" y="265.5">i</text>
<rect rx="6" ry="6" x="529.0" y="243.0" width="55" height="45" class="" />
<text text-anchor="middle" dominant-baseline="middle" x="556.5" y="265.5">o</text>
<rect rx="6" ry="6" x="588.0" y="243.0" width="55" height="45" class="" />
<text text-anchor="middle" dominant-baseline="middle" x="615.5" y="265.5">p</text>
<rect rx="6" ry="6" x="352.0" y="292.0" width="55" height="45" class="" />
<text text-anchor="middle" dominant-baseline="middle" x="379.5" y="314.5">j</text>
<rect rx="6" ry="6" x="411.0" y="292.0" width="55" height="45" class="hold" />
<text text-anchor="middle" dominant-baseline="middle" x="438.5" y="314.5">shift</text>
<rect rx="6" ry="6" x="470.0" y="292.0" width="55" height="45" class="hold" />
<text text-anchor="middle" dominant-baseline="middle" x="497.5" y="314.5">cmd</text>
<rect rx="6" ry="6" x="529.0" y="292.0" width="55" height="45" class="hold" />
<text text-anchor="middle" dominant-baseline="middle" x="556.5" y="314.5">alt</text>
<rect rx="6" ry="6" x="588.0" y="292.0" width="55" height="45" class="hold" />
<text text-anchor="middle" dominant-baseline="middle" x="615.5" y="314.5">ctrl</text>
<rect rx="6" ry="6" x="352.0" y="341.0" width="55" height="45" class="" />
<text text-anchor="middle" dominant-baseline="middle" x="379.5" y="363.5">m</text>
<rect rx="6" ry="6" x="411.0" y="341.0" width="55" height="45" class="" />
<text text-anchor="middle" dominant-baseline="middle" x="438.5" y="363.5">n</text>
<rect rx="6" ry="6" x="470.0" y="341.0" width="55" height="45" class="" />
<text text-anchor="middle" dominant-baseline="middle" x="497.5" y="363.5">,</text>
<rect rx="6" ry="6" x="529.0" y="341.0" width="55" height="45" class="" />
<text text-anchor="middle" dominant-baseline="middle" x="556.5" y="363.5">.</text>
<rect rx="6" ry="6" x="588.0" y="341.0" width="55" height="45" class="" />
<text text-anchor="middle" dominant-baseline="middle" x="615.5" y="363.5">/</text>
<rect rx="6" ry="6" x="206.5" y="390.0" width="55" height="45" class="" />
<text text-anchor="middle" dominant-baseline="middle" x="234.0" y="412.5">bkspc</text>
<rect rx="6" ry="6" x="265.5" y="390.0" width="55" height="45" class="" />
<text text-anchor="middle" dominant-baseline="middle" x="293.0" y="412.5">esc</text>
<rect rx="6" ry="6" x="352.0" y="390.0" width="55" height="45" class="" />
<text text-anchor="middle" dominant-baseline="middle" x="379.5" y="412.5">enter</text>
<rect rx="6" ry="6" x="411.0" y="390.0" width="55" height="45" class="" />
<text text-anchor="middle" dominant-baseline="middle" x="438.5" y="412.5">space</text>
<rect rx="6" ry="6" x="29.5" y="461.5" width="55" height="45" class="" />
<text text-anchor="middle" dominant-baseline="middle" x="57.0" y="484.0">q</text>
<rect rx="6" ry="6" x="88.5" y="461.5" width="55" height="45" class="combo" />
<text text-anchor="middle" dominant-baseline="middle" x="116.0" y="484.0">{</text>
<rect rx="6" ry="6" x="147.5" y="461.5" width="55" height="45" class="combo" />
<text text-anchor="middle" dominant-baseline="middle" x="175.0" y="484.0">{</text>
<path fill="none" stroke="#5656A8" stroke-width="4" stroke-linecap="round" d="M173.0,469.0 A55,55 0,0,0 118.0,469.0" />
<rect rx="6" ry="6" x="206.5" y="461.5" width="55" height="45" class="" />
<text text-anchor="middle" dominant-baseline="middle" x="234.0" y="484.0">r</text>
<rect rx="6" ry="6" x="265.5" y="461.5" width="55" height="45" class="" />
<text text-anchor="middle" dominant-baseline="middle" x="293.0" y="484.0">t</text>
<rect rx="6" ry="6" x="29.5" y="510.5" width="55" height="45" class="" />
<text text-anchor="middle" dominant-baseline="middle" x="57.0" y="533.0">a</text>
<rect rx="6" ry="6" x="88.5" y="510.5" width="55" height="45" class="combo" />
<text text-anchor="middle" dominant-baseline="middle" x="116.0" y="533.0">[</text>
<rect rx="6" ry="6" x="147.5" y="510.5" width="55" height="45" class="combo" />
<text text-anchor="middle" dominant-baseline="middle" x="175.0" y="533.0">[</text>
<path fill="none" stroke="#5656A8" stroke-width="4" stroke-linecap="round" d="M173.0,518.0 A55,55 0,0,0 118.0,518.0" />
<rect rx="6" ry="6" x="206.5" y="510.5" width="55" height="45" class="" />
<text text-anchor="middle" dominant-baseline="middle" x="234.0" y="533.0">f</text>
<rect rx="6" ry="6" x="265.5" y="510.5" width="55" height="45" class="" />
<text text-anchor="middle" dominant-baseline="middle" x="293.0" y="533.0">g</text>
<rect rx="6" ry="6" x="29.5" y="559.5" width="55" height="45" class="" />
<text text-anchor="middle" dominant-baseline="middle" x="57.0" y="582.0">z</text>
<rect rx="6" ry="6" x="88.5" y="559.5" width="55" height="45" class="combo" />
<text text-anchor="middle" dominant-baseline="middle" x="116.0" y="582.0">`</text>
<rect rx="6" ry="6" x="147.5" y="559.5" width="55" height="45" class="combo" />
<text text-anchor="middle" dominant-baseline="middle" x="175.0" y="582.0">`</text>
<path fill="none" stroke="#5656A8" stroke-width="4" stroke-linecap="round" d="M173.0,567.0 A55,55 0,0,0 118.0,567.0" />
<rect rx="6" ry="6" x="206.5" y="559.5" width="55" height="45" class="" />
<text text-anchor="middle" dominant-baseline="middle" x="234.0" y="582.0">v</text>
<rect rx="6" ry="6" x="265.5" y="559.5" width="55" height="45" class="" />
<text text-anchor="middle" dominant-baseline="middle" x="293.0" y="582.0">b</text>
<rect rx="6" ry="6" x="352.0" y="461.5" width="55" height="45" class="" />
<text text-anchor="middle" dominant-baseline="middle" x="379.5" y="484.0">y</text>
<rect rx="6" ry="6" x="411.0" y="461.5" width="55" height="45" class="" />
<text text-anchor="middle" dominant-baseline="middle" x="438.5" y="484.0">u</text>
<rect rx="6" ry="6" x="470.0" y="461.5" width="55" height="45" class="combo" />
<text text-anchor="middle" dominant-baseline="middle" x="497.5" y="484.0">=</text>
<rect rx="6" ry="6" x="529.0" y="461.5" width="55" height="45" class="combo" />
<text text-anchor="middle" dominant-baseline="middle" x="556.5" y="484.0">=</text>
<path fill="none" stroke="#5656A8" stroke-width="4" stroke-linecap="round" d="M554.5,469.0 A55,55 0,0,0 499.5,469.0" />
<rect rx="6" ry="6" x="588.0" y="461.5" width="55" height="45" class="" />
<text text-anchor="middle" dominant-baseline="middle" x="615.5" y="484.0">p</text>
<rect rx="6" ry="6" x="352.0" y="510.5" width="55" height="45" class="" />
<text text-anchor="middle" dominant-baseline="middle" x="379.5" y="533.0">j</text>
<rect rx="6" ry="6" x="411.0" y="510.5" width="55" height="45" class="" />
<text text-anchor="middle" dominant-baseline="middle" x="438.5" y="533.0">j</text>
<rect rx="6" ry="6" x="470.0" y="510.5" width="55" height="45" class="combo" />
<text text-anchor="middle" dominant-baseline="middle" x="497.5" y="533.0">'</text>
<rect rx="6" ry="6" x="529.0" y="510.5" width="55" height="45" class="combo" />
<text text-anchor="middle" dominant-baseline="middle" x="556.5" y="533.0">'</text>
<path fill="none" stroke="#5656A8" stroke-width="4" stroke-linecap="round" d="M554.5,518.0 A55,55 0,0,0 499.5,518.0" />
<rect rx="6" ry="6" x="588.0" y="510.5" width="55" height="45" class="" />
<text text-anchor="middle" dominant-baseline="middle" x="615.5" y="533.0">;</text>
<rect rx="6" ry="6" x="352.0" y="559.5" width="55" height="45" class="" />
<text text-anchor="middle" dominant-baseline="middle" x="379.5" y="582.0">m</text>
<rect rx="6" ry="6" x="411.0" y="559.5" width="55" height="45" class="" />
<text text-anchor="middle" dominant-baseline="middle" x="438.5" y="582.0">n</text>
<rect rx="6" ry="6" x="470.0" y="559.5" width="55" height="45" class="combo" />
<text text-anchor="middle" dominant-baseline="middle" x="497.5" y="582.0">\</text>
<rect rx="6" ry="6" x="529.0" y="559.5" width="55" height="45" class="combo" />
<text text-anchor="middle" dominant-baseline="middle" x="556.5" y="582.0">\</text>
<path fill="none" stroke="#5656A8" stroke-width="4" stroke-linecap="round" d="M554.5,567.0 A55,55 0,0,0 499.5,567.0" />
<rect rx="6" ry="6" x="588.0" y="559.5" width="55" height="45" class="" />
<text text-anchor="middle" dominant-baseline="middle" x="615.5" y="582.0">/</text>
<rect rx="6" ry="6" x="206.5" y="608.5" width="55" height="45" class="combo" />
<text text-anchor="middle" dominant-baseline="middle" x="234.0" y="631.0">del</text>
<rect rx="6" ry="6" x="265.5" y="608.5" width="55" height="45" class="combo" />
<text text-anchor="middle" dominant-baseline="middle" x="293.0" y="631.0">del</text>
<path fill="none" stroke="#5656A8" stroke-width="4" stroke-linecap="round" d="M291.0,616.0 A55,55 0,0,0 236.0,616.0" />
<rect rx="6" ry="6" x="352.0" y="608.5" width="55" height="45" class="combo" />
<text text-anchor="middle" dominant-baseline="middle" x="379.5" y="631.0">tab</text>
<rect rx="6" ry="6" x="411.0" y="608.5" width="55" height="45" class="combo" />
<text text-anchor="middle" dominant-baseline="middle" x="438.5" y="631.0">tab</text>
<path fill="none" stroke="#5656A8" stroke-width="4" stroke-linecap="round" d="M436.5,616.0 A55,55 0,0,0 381.5,616.0" />
<rect rx="6" ry="6" x="29.5" y="680.0" width="55" height="45" class="" />
<text text-anchor="middle" dominant-baseline="middle" x="57.0" y="702.5">q</text>
<rect rx="6" ry="6" x="88.5" y="680.0" width="55" height="45" class="" />
<text text-anchor="middle" dominant-baseline="middle" x="116.0" y="702.5">w</text>
<rect rx="6" ry="6" x="147.5" y="680.0" width="55" height="45" class="combo" />
<text text-anchor="middle" dominant-baseline="middle" x="175.0" y="702.5">}</text>
<rect rx="6" ry="6" x="206.5" y="680.0" width="55" height="45" class="combo" />
<text text-anchor="middle" dominant-baseline="middle" x="234.0" y="702.5">}</text>
<path fill="none" stroke="#5656A8" stroke-width="4" stroke-linecap="round" d="M232.0,687.5 A55,55 0,0,0 177.0,687.5" />
<rect rx="6" ry="6" x="265.5" y="680.0" width="55" height="45" class="" />
<text text-anchor="middle" dominant-baseline="middle" x="293.0" y="702.5">t</text>
<rect rx="6" ry="6" x="29.5" y="729.0" width="55" height="45" class="" />
<text text-anchor="middle" dominant-baseline="middle" x="57.0" y="751.5">a</text>
<rect rx="6" ry="6" x="88.5" y="729.0" width="55" height="45" class="" />
<text text-anchor="middle" dominant-baseline="middle" x="116.0" y="751.5">s</text>
<rect rx="6" ry="6" x="147.5" y="729.0" width="55" height="45" class="combo" />
<text text-anchor="middle" dominant-baseline="middle" x="175.0" y="751.5">]</text>
<rect rx="6" ry="6" x="206.5" y="729.0" width="55" height="45" class="combo" />
<text text-anchor="middle" dominant-baseline="middle" x="234.0" y="751.5">]</text>
<path fill="none" stroke="#5656A8" stroke-width="4" stroke-linecap="round" d="M232.0,736.5 A55,55 0,0,0 177.0,736.5" />
<rect rx="6" ry="6" x="265.5" y="729.0" width="55" height="45" class="" />
<text text-anchor="middle" dominant-baseline="middle" x="293.0" y="751.5">g</text>
<rect rx="6" ry="6" x="29.5" y="778.0" width="55" height="45" class="" />
<text text-anchor="middle" dominant-baseline="middle" x="57.0" y="800.5">z</text>
<rect rx="6" ry="6" x="88.5" y="778.0" width="55" height="45" class="" />
<text text-anchor="middle" dominant-baseline="middle" x="116.0" y="800.5">x</text>
<rect rx="6" ry="6" x="147.5" y="778.0" width="55" height="45" class="combo" />
<text text-anchor="middle" dominant-baseline="middle" x="175.0" y="800.5">~</text>
<rect rx="6" ry="6" x="206.5" y="778.0" width="55" height="45" class="combo" />
<text text-anchor="middle" dominant-baseline="middle" x="234.0" y="800.5">~</text>
<path fill="none" stroke="#5656A8" stroke-width="4" stroke-linecap="round" d="M232.0,785.5 A55,55 0,0,0 177.0,785.5" />
<rect rx="6" ry="6" x="265.5" y="778.0" width="55" height="45" class="" />
<text text-anchor="middle" dominant-baseline="middle" x="293.0" y="800.5">b</text>
<rect rx="6" ry="6" x="352.0" y="680.0" width="55" height="45" class="" />
<text text-anchor="middle" dominant-baseline="middle" x="379.5" y="702.5">y</text>
<rect rx="6" ry="6" x="411.0" y="680.0" width="55" height="45" class="combo" />
<text text-anchor="middle" dominant-baseline="middle" x="438.5" y="702.5">-</text>
<rect rx="6" ry="6" x="470.0" y="680.0" width="55" height="45" class="combo" />
<text text-anchor="middle" dominant-baseline="middle" x="497.5" y="702.5">-</text>
<path fill="none" stroke="#5656A8" stroke-width="4" stroke-linecap="round" d="M495.5,687.5 A55,55 0,0,0 440.5,687.5" />
<rect rx="6" ry="6" x="529.0" y="680.0" width="55" height="45" class="" />
<text text-anchor="middle" dominant-baseline="middle" x="556.5" y="702.5">o</text>
<rect rx="6" ry="6" x="588.0" y="680.0" width="55" height="45" class="" />
<text text-anchor="middle" dominant-baseline="middle" x="615.5" y="702.5">p</text>
<rect rx="6" ry="6" x="352.0" y="729.0" width="55" height="45" class="" />
<text text-anchor="middle" dominant-baseline="middle" x="379.5" y="751.5">j</text>
<rect rx="6" ry="6" x="411.0" y="729.0" width="55" height="45" class="" />
<text text-anchor="middle" dominant-baseline="middle" x="438.5" y="751.5">j</text>
<rect rx="6" ry="6" x="470.0" y="729.0" width="55" height="45" class="" />
<text text-anchor="middle" dominant-baseline="middle" x="497.5" y="751.5">k</text>
<rect rx="6" ry="6" x="529.0" y="729.0" width="55" height="45" class="" />
<text text-anchor="middle" dominant-baseline="middle" x="556.5" y="751.5">l</text>
<rect rx="6" ry="6" x="588.0" y="729.0" width="55" height="45" class="" />
<text text-anchor="middle" dominant-baseline="middle" x="615.5" y="751.5">;</text>
<rect rx="6" ry="6" x="352.0" y="778.0" width="55" height="45" class="" />
<text text-anchor="middle" dominant-baseline="middle" x="379.5" y="800.5">m</text>
<rect rx="6" ry="6" x="411.0" y="778.0" width="55" height="45" class="" />
<text text-anchor="middle" dominant-baseline="middle" x="438.5" y="800.5">n</text>
<rect rx="6" ry="6" x="470.0" y="778.0" width="55" height="45" class="" />
<text text-anchor="middle" dominant-baseline="middle" x="497.5" y="800.5">,</text>
<rect rx="6" ry="6" x="529.0" y="778.0" width="55" height="45" class="" />
<text text-anchor="middle" dominant-baseline="middle" x="556.5" y="800.5">.</text>
<rect rx="6" ry="6" x="588.0" y="778.0" width="55" height="45" class="" />
<text text-anchor="middle" dominant-baseline="middle" x="615.5" y="800.5">/</text>
<rect rx="6" ry="6" x="206.5" y="827.0" width="55" height="45" class="" />
<text text-anchor="middle" dominant-baseline="middle" x="234.0" y="849.5">bkspc</text>
<rect rx="6" ry="6" x="265.5" y="827.0" width="55" height="45" class="" />
<text text-anchor="middle" dominant-baseline="middle" x="293.0" y="849.5">esc</text>
<rect rx="6" ry="6" x="352.0" y="827.0" width="55" height="45" class="" />
<text text-anchor="middle" dominant-baseline="middle" x="379.5" y="849.5">enter</text>
<rect rx="6" ry="6" x="411.0" y="827.0" width="55" height="45" class="" />
<text text-anchor="middle" dominant-baseline="middle" x="438.5" y="849.5">space</text>
<rect rx="6" ry="6" x="29.5" y="898.5" width="55" height="45" class="" />
<text text-anchor="middle" dominant-baseline="middle" x="57.0" y="921.0">[</text>
<rect rx="6" ry="6" x="88.5" y="898.5" width="55" height="45" class="" />
<text text-anchor="middle" dominant-baseline="middle" x="116.0" y="921.0">7</text>
<rect rx="6" ry="6" x="147.5" y="898.5" width="55" height="45" class="" />
<text text-anchor="middle" dominant-baseline="middle" x="175.0" y="921.0">8</text>
<rect rx="6" ry="6" x="206.5" y="898.5" width="55" height="45" class="" />
<text text-anchor="middle" dominant-baseline="middle" x="234.0" y="921.0">9</text>
<rect rx="6" ry="6" x="265.5" y="898.5" width="55" height="45" class="" />
<text text-anchor="middle" dominant-baseline="middle" x="293.0" y="921.0">]</text>
<rect rx="6" ry="6" x="29.5" y="947.5" width="55" height="45" class="" />
<text text-anchor="middle" dominant-baseline="middle" x="57.0" y="970.0">'</text>
<rect rx="6" ry="6" x="88.5" y="947.5" width="55" height="45" class="" />
<text text-anchor="middle" dominant-baseline="middle" x="116.0" y="970.0">4</text>
<rect rx="6" ry="6" x="147.5" y="947.5" width="55" height="45" class="" />
<text text-anchor="middle" dominant-baseline="middle" x="175.0" y="970.0">5</text>
<rect rx="6" ry="6" x="206.5" y="947.5" width="55" height="45" class="" />
<text text-anchor="middle" dominant-baseline="middle" x="234.0" y="970.0">6</text>
<rect rx="6" ry="6" x="265.5" y="947.5" width="55" height="45" class="" />
<text text-anchor="middle" dominant-baseline="middle" x="293.0" y="970.0">=</text>
<rect rx="6" ry="6" x="29.5" y="996.5" width="55" height="45" class="" />
<text text-anchor="middle" dominant-baseline="middle" x="57.0" y="1019.0">`</text>
<rect rx="6" ry="6" x="88.5" y="996.5" width="55" height="45" class="" />
<text text-anchor="middle" dominant-baseline="middle" x="116.0" y="1019.0">1</text>
<rect rx="6" ry="6" x="147.5" y="996.5" width="55" height="45" class="" />
<text text-anchor="middle" dominant-baseline="middle" x="175.0" y="1019.0">2</text>
<rect rx="6" ry="6" x="206.5" y="996.5" width="55" height="45" class="" />
<text text-anchor="middle" dominant-baseline="middle" x="234.0" y="1019.0">3</text>
<rect rx="6" ry="6" x="265.5" y="996.5" width="55" height="45" class="" />
<text text-anchor="middle" dominant-baseline="middle" x="293.0" y="1019.0">\</text>
<rect rx="6" ry="6" x="352.0" y="898.5" width="55" height="45" class="" />
<rect rx="6" ry="6" x="411.0" y="898.5" width="55" height="45" class="" />
<rect rx="6" ry="6" x="470.0" y="898.5" width="55" height="45" class="" />
<rect rx="6" ry="6" x="529.0" y="898.5" width="55" height="45" class="" />
<rect rx="6" ry="6" x="588.0" y="898.5" width="55" height="45" class="" />
<rect rx="6" ry="6" x="352.0" y="947.5" width="55" height="45" class="" />
<rect rx="6" ry="6" x="411.0" y="947.5" width="55" height="45" class="" />
<text text-anchor="middle" dominant-baseline="middle" x="438.5" y="970.0">shift</text>
<rect rx="6" ry="6" x="470.0" y="947.5" width="55" height="45" class="" />
<text text-anchor="middle" dominant-baseline="middle" x="497.5" y="970.0">cmd</text>
<rect rx="6" ry="6" x="529.0" y="947.5" width="55" height="45" class="" />
<text text-anchor="middle" dominant-baseline="middle" x="556.5" y="970.0">alt</text>
<rect rx="6" ry="6" x="588.0" y="947.5" width="55" height="45" class="" />
<text text-anchor="middle" dominant-baseline="middle" x="615.5" y="970.0">ctrl</text>
<rect rx="6" ry="6" x="352.0" y="996.5" width="55" height="45" class="" />
<rect rx="6" ry="6" x="411.0" y="996.5" width="55" height="45" class="" />
<rect rx="6" ry="6" x="470.0" y="996.5" width="55" height="45" class="" />
<rect rx="6" ry="6" x="529.0" y="996.5" width="55" height="45" class="" />
<rect rx="6" ry="6" x="588.0" y="996.5" width="55" height="45" class="" />
<rect rx="6" ry="6" x="206.5" y="1045.5" width="55" height="45" class="" />
<text text-anchor="middle" dominant-baseline="middle" x="234.0" y="1068.0">0</text>
<rect rx="6" ry="6" x="265.5" y="1045.5" width="55" height="45" class="" />
<text text-anchor="middle" dominant-baseline="middle" x="293.0" y="1068.0">-</text>
<rect rx="6" ry="6" x="352.0" y="1045.5" width="55" height="45" class="" />
<text text-anchor="middle" dominant-baseline="middle" x="379.5" y="1068.0">enter</text>
<rect rx="6" ry="6" x="411.0" y="1045.5" width="55" height="45" class="hold" />
<text text-anchor="middle" dominant-baseline="middle" x="438.5" y="1068.0">num</text>
<rect rx="6" ry="6" x="29.5" y="1117.0" width="55" height="45" class="" />
<text text-anchor="middle" dominant-baseline="middle" x="57.0" y="1139.5">{</text>
<rect rx="6" ry="6" x="88.5" y="1117.0" width="55" height="45" class="" />
<text text-anchor="middle" dominant-baseline="middle" x="116.0" y="1139.5">&amp;</text>
<rect rx="6" ry="6" x="147.5" y="1117.0" width="55" height="45" class="" />
<text text-anchor="middle" dominant-baseline="middle" x="175.0" y="1139.5">*</text>
<rect rx="6" ry="6" x="206.5" y="1117.0" width="55" height="45" class="" />
<text text-anchor="middle" dominant-baseline="middle" x="234.0" y="1139.5">(</text>
<rect rx="6" ry="6" x="265.5" y="1117.0" width="55" height="45" class="" />
<text text-anchor="middle" dominant-baseline="middle" x="293.0" y="1139.5">}</text>
<rect rx="6" ry="6" x="29.5" y="1166.0" width="55" height="45" class="" />
<text text-anchor="middle" dominant-baseline="middle" x="57.0" y="1188.5">"</text>
<rect rx="6" ry="6" x="88.5" y="1166.0" width="55" height="45" class="" />
<text text-anchor="middle" dominant-baseline="middle" x="116.0" y="1188.5">$</text>
<rect rx="6" ry="6" x="147.5" y="1166.0" width="55" height="45" class="" />
<text text-anchor="middle" dominant-baseline="middle" x="175.0" y="1188.5">%</text>
<rect rx="6" ry="6" x="206.5" y="1166.0" width="55" height="45" class="" />
<text text-anchor="middle" dominant-baseline="middle" x="234.0" y="1188.5">@</text>
<rect rx="6" ry="6" x="265.5" y="1166.0" width="55" height="45" class="" />
<text text-anchor="middle" dominant-baseline="middle" x="293.0" y="1188.5">+</text>
<rect rx="6" ry="6" x="29.5" y="1215.0" width="55" height="45" class="" />
<text text-anchor="middle" dominant-baseline="middle" x="57.0" y="1237.5">~</text>
<rect rx="6" ry="6" x="88.5" y="1215.0" width="55" height="45" class="" />
<text text-anchor="middle" dominant-baseline="middle" x="116.0" y="1237.5">!</text>
<rect rx="6" ry="6" x="147.5" y="1215.0" width="55" height="45" class="" />
<text text-anchor="middle" dominant-baseline="middle" x="175.0" y="1237.5">@</text>
<rect rx="6" ry="6" x="206.5" y="1215.0" width="55" height="45" class="" />
<text text-anchor="middle" dominant-baseline="middle" x="234.0" y="1237.5">#</text>
<rect rx="6" ry="6" x="265.5" y="1215.0" width="55" height="45" class="" />
<text text-anchor="middle" dominant-baseline="middle" x="293.0" y="1237.5">|</text>
<rect rx="6" ry="6" x="352.0" y="1117.0" width="55" height="45" class="" />
<rect rx="6" ry="6" x="411.0" y="1117.0" width="55" height="45" class="" />
<rect rx="6" ry="6" x="470.0" y="1117.0" width="55" height="45" class="" />
<rect rx="6" ry="6" x="529.0" y="1117.0" width="55" height="45" class="" />
<rect rx="6" ry="6" x="588.0" y="1117.0" width="55" height="45" class="" />
<rect rx="6" ry="6" x="352.0" y="1166.0" width="55" height="45" class="" />
<rect rx="6" ry="6" x="411.0" y="1166.0" width="55" height="45" class="" />
<text text-anchor="middle" dominant-baseline="middle" x="438.5" y="1188.5">shift</text>
<rect rx="6" ry="6" x="470.0" y="1166.0" width="55" height="45" class="" />
<text text-anchor="middle" dominant-baseline="middle" x="497.5" y="1188.5">cmd</text>
<rect rx="6" ry="6" x="529.0" y="1166.0" width="55" height="45" class="" />
<text text-anchor="middle" dominant-baseline="middle" x="556.5" y="1188.5">alt</text>
<rect rx="6" ry="6" x="588.0" y="1166.0" width="55" height="45" class="" />
<text text-anchor="middle" dominant-baseline="middle" x="615.5" y="1188.5">ctrl</text>
<rect rx="6" ry="6" x="352.0" y="1215.0" width="55" height="45" class="" />
<rect rx="6" ry="6" x="411.0" y="1215.0" width="55" height="45" class="" />
<rect rx="6" ry="6" x="470.0" y="1215.0" width="55" height="45" class="" />
<rect rx="6" ry="6" x="529.0" y="1215.0" width="55" height="45" class="" />
<rect rx="6" ry="6" x="588.0" y="1215.0" width="55" height="45" class="" />
<rect rx="6" ry="6" x="206.5" y="1264.0" width="55" height="45" class="" />
<text text-anchor="middle" dominant-baseline="middle" x="234.0" y="1286.5">)</text>
<rect rx="6" ry="6" x="265.5" y="1264.0" width="55" height="45" class="" />
<text text-anchor="middle" dominant-baseline="middle" x="293.0" y="1286.5">_</text>
<rect rx="6" ry="6" x="352.0" y="1264.0" width="55" height="45" class="hold" />
<text text-anchor="middle" dominant-baseline="middle" x="379.5" y="1286.5">sym</text>
<rect rx="6" ry="6" x="411.0" y="1264.0" width="55" height="45" class="" />
<text text-anchor="middle" dominant-baseline="middle" x="438.5" y="1286.5">space</text>
<rect rx="6" ry="6" x="29.5" y="1335.5" width="55" height="45" class="" />
<text text-anchor="middle" dominant-baseline="middle" x="57.0" y="1358.0">F12</text>
<rect rx="6" ry="6" x="88.5" y="1335.5" width="55" height="45" class="" />
<text text-anchor="middle" dominant-baseline="middle" x="116.0" y="1358.0">F7</text>
<rect rx="6" ry="6" x="147.5" y="1335.5" width="55" height="45" class="" />
<text text-anchor="middle" dominant-baseline="middle" x="175.0" y="1358.0">F8</text>
<rect rx="6" ry="6" x="206.5" y="1335.5" width="55" height="45" class="" />
<text text-anchor="middle" dominant-baseline="middle" x="234.0" y="1358.0">F9</text>
<rect rx="6" ry="6" x="265.5" y="1335.5" width="55" height="45" class="" />
<text text-anchor="middle" dominant-baseline="middle" x="293.0" y="1358.0">pscrn</text>
<rect rx="6" ry="6" x="29.5" y="1384.5" width="55" height="45" class="" />
<text text-anchor="middle" dominant-baseline="middle" x="57.0" y="1407.0">F11</text>
<rect rx="6" ry="6" x="88.5" y="1384.5" width="55" height="45" class="" />
<text text-anchor="middle" dominant-baseline="middle" x="116.0" y="1407.0">F4</text>
<rect rx="6" ry="6" x="147.5" y="1384.5" width="55" height="45" class="" />
<text text-anchor="middle" dominant-baseline="middle" x="175.0" y="1407.0">F5</text>
<rect rx="6" ry="6" x="206.5" y="1384.5" width="55" height="45" class="" />
<text text-anchor="middle" dominant-baseline="middle" x="234.0" y="1407.0">F6</text>
<rect rx="6" ry="6" x="265.5" y="1384.5" width="55" height="45" class="" />
<text text-anchor="middle" dominant-baseline="middle" x="293.0" y="1407.0">slck</text>
<rect rx="6" ry="6" x="29.5" y="1433.5" width="55" height="45" class="" />
<text text-anchor="middle" dominant-baseline="middle" x="57.0" y="1456.0">F10</text>
<rect rx="6" ry="6" x="88.5" y="1433.5" width="55" height="45" class="" />
<text text-anchor="middle" dominant-baseline="middle" x="116.0" y="1456.0">F1</text>
<rect rx="6" ry="6" x="147.5" y="1433.5" width="55" height="45" class="" />
<text text-anchor="middle" dominant-baseline="middle" x="175.0" y="1456.0">F2</text>
<rect rx="6" ry="6" x="206.5" y="1433.5" width="55" height="45" class="" />
<text text-anchor="middle" dominant-baseline="middle" x="234.0" y="1456.0">F3</text>
<rect rx="6" ry="6" x="265.5" y="1433.5" width="55" height="45" class="" />
<text text-anchor="middle" dominant-baseline="middle" x="293.0" y="1456.0">psbrk</text>
<rect rx="6" ry="6" x="352.0" y="1335.5" width="55" height="45" class="" />
<rect rx="6" ry="6" x="411.0" y="1335.5" width="55" height="45" class="" />
<rect rx="6" ry="6" x="470.0" y="1335.5" width="55" height="45" class="" />
<rect rx="6" ry="6" x="529.0" y="1335.5" width="55" height="45" class="" />
<rect rx="6" ry="6" x="588.0" y="1335.5" width="55" height="45" class="" />
<rect rx="6" ry="6" x="352.0" y="1384.5" width="55" height="45" class="" />
<rect rx="6" ry="6" x="411.0" y="1384.5" width="55" height="45" class="" />
<text text-anchor="middle" dominant-baseline="middle" x="438.5" y="1407.0">shift</text>
<rect rx="6" ry="6" x="470.0" y="1384.5" width="55" height="45" class="" />
<text text-anchor="middle" dominant-baseline="middle" x="497.5" y="1407.0">cmd</text>
<rect rx="6" ry="6" x="529.0" y="1384.5" width="55" height="45" class="" />
<text text-anchor="middle" dominant-baseline="middle" x="556.5" y="1407.0">alt</text>
<rect rx="6" ry="6" x="588.0" y="1384.5" width="55" height="45" class="" />
<text text-anchor="middle" dominant-baseline="middle" x="615.5" y="1407.0">ctrl</text>
<rect rx="6" ry="6" x="352.0" y="1433.5" width="55" height="45" class="" />
<rect rx="6" ry="6" x="411.0" y="1433.5" width="55" height="45" class="" />
<rect rx="6" ry="6" x="470.0" y="1433.5" width="55" height="45" class="" />
<rect rx="6" ry="6" x="529.0" y="1433.5" width="55" height="45" class="" />
<rect rx="6" ry="6" x="588.0" y="1433.5" width="55" height="45" class="" />
<rect rx="6" ry="6" x="206.5" y="1482.5" width="55" height="45" class="" />
<rect rx="6" ry="6" x="265.5" y="1482.5" width="55" height="45" class="" />
<rect rx="6" ry="6" x="352.0" y="1482.5" width="55" height="45" class="combo_hold" />
<text text-anchor="middle" dominant-baseline="middle" x="379.5" y="1505.0">func</text>
<rect rx="6" ry="6" x="411.0" y="1482.5" width="55" height="45" class="combo_hold" />
<text text-anchor="middle" dominant-baseline="middle" x="438.5" y="1505.0">func</text>
<path fill="none" stroke="#5656A8" stroke-width="4" stroke-linecap="round" d="M436.5,1490.0 A55,55 0,0,0 381.5,1490.0" />
<rect rx="6" ry="6" x="29.5" y="1554.0" width="55" height="45" class="" />
<rect rx="6" ry="6" x="88.5" y="1554.0" width="55" height="45" class="" />
<rect rx="6" ry="6" x="147.5" y="1554.0" width="55" height="45" class="" />
<rect rx="6" ry="6" x="206.5" y="1554.0" width="55" height="45" class="" />
<rect rx="6" ry="6" x="265.5" y="1554.0" width="55" height="45" class="" />
<rect rx="6" ry="6" x="29.5" y="1603.0" width="55" height="45" class="" />
<text text-anchor="middle" dominant-baseline="middle" x="57.0" y="1625.5">ctrl</text>
<rect rx="6" ry="6" x="88.5" y="1603.0" width="55" height="45" class="" />
<text text-anchor="middle" dominant-baseline="middle" x="116.0" y="1625.5">alt</text>
<rect rx="6" ry="6" x="147.5" y="1603.0" width="55" height="45" class="" />
<text text-anchor="middle" dominant-baseline="middle" x="175.0" y="1625.5">cmd</text>
<rect rx="6" ry="6" x="206.5" y="1603.0" width="55" height="45" class="" />
<text text-anchor="middle" dominant-baseline="middle" x="234.0" y="1625.5">shift</text>
<rect rx="6" ry="6" x="265.5" y="1603.0" width="55" height="45" class="" />
<rect rx="6" ry="6" x="29.5" y="1652.0" width="55" height="45" class="" />
<rect rx="6" ry="6" x="88.5" y="1652.0" width="55" height="45" class="" />
<rect rx="6" ry="6" x="147.5" y="1652.0" width="55" height="45" class="" />
<rect rx="6" ry="6" x="206.5" y="1652.0" width="55" height="45" class="" />
<rect rx="6" ry="6" x="265.5" y="1652.0" width="55" height="45" class="" />
<rect rx="6" ry="6" x="352.0" y="1554.0" width="55" height="45" class="" />
<rect rx="6" ry="6" x="411.0" y="1554.0" width="55" height="45" class="" />
<rect rx="6" ry="6" x="470.0" y="1554.0" width="55" height="45" class="" />
<rect rx="6" ry="6" x="529.0" y="1554.0" width="55" height="45" class="" />
<rect rx="6" ry="6" x="588.0" y="1554.0" width="55" height="45" class="" />
<rect rx="6" ry="6" x="352.0" y="1603.0" width="55" height="45" class="" />
<text text-anchor="middle" dominant-baseline="middle" x="379.5" y="1616.5">caps</text>
<text text-anchor="middle" dominant-baseline="middle" x="379.5" y="1634.5">lock</text>
<rect rx="6" ry="6" x="411.0" y="1603.0" width="55" height="45" class="" />
<text text-anchor="middle" dominant-baseline="middle" x="438.5" y="1625.5">left</text>
<rect rx="6" ry="6" x="470.0" y="1603.0" width="55" height="45" class="" />
<text text-anchor="middle" dominant-baseline="middle" x="497.5" y="1625.5">down</text>
<rect rx="6" ry="6" x="529.0" y="1603.0" width="55" height="45" class="" />
<text text-anchor="middle" dominant-baseline="middle" x="556.5" y="1625.5">up</text>
<rect rx="6" ry="6" x="588.0" y="1603.0" width="55" height="45" class="" />
<text text-anchor="middle" dominant-baseline="middle" x="615.5" y="1625.5">right</text>
<rect rx="6" ry="6" x="352.0" y="1652.0" width="55" height="45" class="" />
<text text-anchor="middle" dominant-baseline="middle" x="379.5" y="1674.5">ins</text>
<rect rx="6" ry="6" x="411.0" y="1652.0" width="55" height="45" class="" />
<text text-anchor="middle" dominant-baseline="middle" x="438.5" y="1674.5">home</text>
<rect rx="6" ry="6" x="470.0" y="1652.0" width="55" height="45" class="" />
<text text-anchor="middle" dominant-baseline="middle" x="497.5" y="1665.5">page</text>
<text text-anchor="middle" dominant-baseline="middle" x="497.5" y="1683.5">down</text>
<rect rx="6" ry="6" x="529.0" y="1652.0" width="55" height="45" class="" />
<text text-anchor="middle" dominant-baseline="middle" x="556.5" y="1665.5">page</text>
<text text-anchor="middle" dominant-baseline="middle" x="556.5" y="1683.5">up</text>
<rect rx="6" ry="6" x="588.0" y="1652.0" width="55" height="45" class="" />
<text text-anchor="middle" dominant-baseline="middle" x="615.5" y="1674.5">end</text>
<rect rx="6" ry="6" x="206.5" y="1701.0" width="55" height="45" class="hold" />
<text text-anchor="middle" dominant-baseline="middle" x="234.0" y="1723.5">nav</text>
<rect rx="6" ry="6" x="265.5" y="1701.0" width="55" height="45" class="" />
<text text-anchor="middle" dominant-baseline="middle" x="293.0" y="1723.5">esc</text>
<rect rx="6" ry="6" x="352.0" y="1701.0" width="55" height="45" class="" />
<text text-anchor="middle" dominant-baseline="middle" x="379.5" y="1723.5">enter</text>
<rect rx="6" ry="6" x="411.0" y="1701.0" width="55" height="45" class="" />
<text text-anchor="middle" dominant-baseline="middle" x="438.5" y="1723.5">space</text>
<rect rx="6" ry="6" x="29.5" y="1772.5" width="55" height="45" class="" />
<rect rx="6" ry="6" x="88.5" y="1772.5" width="55" height="45" class="" />
<rect rx="6" ry="6" x="147.5" y="1772.5" width="55" height="45" class="" />
<rect rx="6" ry="6" x="206.5" y="1772.5" width="55" height="45" class="" />
<rect rx="6" ry="6" x="265.5" y="1772.5" width="55" height="45" class="" />
<rect rx="6" ry="6" x="29.5" y="1821.5" width="55" height="45" class="" />
<text text-anchor="middle" dominant-baseline="middle" x="57.0" y="1844.0">ctrl</text>
<rect rx="6" ry="6" x="88.5" y="1821.5" width="55" height="45" class="" />
<text text-anchor="middle" dominant-baseline="middle" x="116.0" y="1844.0">alt</text>
<rect rx="6" ry="6" x="147.5" y="1821.5" width="55" height="45" class="" />
<text text-anchor="middle" dominant-baseline="middle" x="175.0" y="1844.0">cmd</text>
<rect rx="6" ry="6" x="206.5" y="1821.5" width="55" height="45" class="" />
<text text-anchor="middle" dominant-baseline="middle" x="234.0" y="1844.0">shift</text>
<rect rx="6" ry="6" x="265.5" y="1821.5" width="55" height="45" class="" />
<rect rx="6" ry="6" x="29.5" y="1870.5" width="55" height="45" class="" />
<rect rx="6" ry="6" x="88.5" y="1870.5" width="55" height="45" class="" />
<rect rx="6" ry="6" x="147.5" y="1870.5" width="55" height="45" class="" />
<rect rx="6" ry="6" x="206.5" y="1870.5" width="55" height="45" class="" />
<rect rx="6" ry="6" x="265.5" y="1870.5" width="55" height="45" class="" />
<rect rx="6" ry="6" x="352.0" y="1772.5" width="55" height="45" class="" />
<rect rx="6" ry="6" x="411.0" y="1772.5" width="55" height="45" class="" />
<rect rx="6" ry="6" x="470.0" y="1772.5" width="55" height="45" class="" />
<rect rx="6" ry="6" x="529.0" y="1772.5" width="55" height="45" class="" />
<rect rx="6" ry="6" x="588.0" y="1772.5" width="55" height="45" class="" />
<rect rx="6" ry="6" x="352.0" y="1821.5" width="55" height="45" class="" />
<rect rx="6" ry="6" x="411.0" y="1821.5" width="55" height="45" class="" />
<text text-anchor="middle" dominant-baseline="middle" x="438.5" y="1844.0">prev</text>
<rect rx="6" ry="6" x="470.0" y="1821.5" width="55" height="45" class="" />
<text text-anchor="middle" dominant-baseline="middle" x="497.5" y="1835.0">vol</text>
<text text-anchor="middle" dominant-baseline="middle" x="497.5" y="1853.0">down</text>
<rect rx="6" ry="6" x="529.0" y="1821.5" width="55" height="45" class="" />
<text text-anchor="middle" dominant-baseline="middle" x="556.5" y="1835.0">vol</text>
<text text-anchor="middle" dominant-baseline="middle" x="556.5" y="1853.0">up</text>
<rect rx="6" ry="6" x="588.0" y="1821.5" width="55" height="45" class="" />
<text text-anchor="middle" dominant-baseline="middle" x="615.5" y="1844.0">next</text>
<rect rx="6" ry="6" x="352.0" y="1870.5" width="55" height="45" class="" />
<text text-anchor="middle" dominant-baseline="middle" x="379.5" y="1893.0">bt4</text>
<rect rx="6" ry="6" x="411.0" y="1870.5" width="55" height="45" class="" />
<text text-anchor="middle" dominant-baseline="middle" x="438.5" y="1893.0">bt3</text>
<rect rx="6" ry="6" x="470.0" y="1870.5" width="55" height="45" class="" />
<text text-anchor="middle" dominant-baseline="middle" x="497.5" y="1893.0">bt2</text>
<rect rx="6" ry="6" x="529.0" y="1870.5" width="55" height="45" class="" />
<text text-anchor="middle" dominant-baseline="middle" x="556.5" y="1893.0">bt1</text>
<rect rx="6" ry="6" x="588.0" y="1870.5" width="55" height="45" class="" />
<text text-anchor="middle" dominant-baseline="middle" x="615.5" y="1893.0">bt0</text>
<rect rx="6" ry="6" x="206.5" y="1919.5" width="55" height="45" class="" />
<text text-anchor="middle" dominant-baseline="middle" x="234.0" y="1942.0">bkspc</text>
<rect rx="6" ry="6" x="265.5" y="1919.5" width="55" height="45" class="hold" />
<text text-anchor="middle" dominant-baseline="middle" x="293.0" y="1942.0">media</text>
<rect rx="6" ry="6" x="352.0" y="1919.5" width="55" height="45" class="" />
<text text-anchor="middle" dominant-baseline="middle" x="379.5" y="1942.0">mute</text>
<rect rx="6" ry="6" x="411.0" y="1919.5" width="55" height="45" class="" />
<text text-anchor="middle" dominant-baseline="middle" x="438.5" y="1933.0">play</text>
<text text-anchor="middle" dominant-baseline="middle" x="438.5" y="1951.0">pause</text>
</svg>
