<svg width="672.5" height="1895.0" viewBox="0 0 672.5 1895.0" xmlns="http://www.w3.org/2000/svg">
<style>
    svg {
        font-family: SFMono-Regular,Consolas,Liberation Mono,Menlo,monospace;
        font-size: 14px;
        font-kerning: normal;
        text-rendering: optimizeLegibility;
        fill: #24292e;
    }

    rect {
        fill: #f6f8fa;
    }

    .hold {
        fill: #ff8080;
    }

    .combo_hold {
        fill: #ff8080;
    }

    .combo {
        fill: #79f2f2;
    }
    
    .number{
        fill: #bfc2c7
    }
</style>
<rect rx="6" ry="6" x="29.5" y="24.5" width="55" height="45" class="number" />
<text text-anchor="middle" dominant-baseline="middle" x="57.0" y="47.0">1</text>
<rect rx="6" ry="6" x="88.5" y="24.5" width="55" height="45" class="number" />
<text text-anchor="middle" dominant-baseline="middle" x="116.0" y="47.0">2</text>
<rect rx="6" ry="6" x="147.5" y="24.5" width="55" height="45" class="number" />
<text text-anchor="middle" dominant-baseline="middle" x="175.0" y="47.0">3</text>
<rect rx="6" ry="6" x="206.5" y="24.5" width="55" height="45" class="number" />
<text text-anchor="middle" dominant-baseline="middle" x="234.0" y="47.0">4</text>
<rect rx="6" ry="6" x="265.5" y="24.5" width="55" height="45" class="number" />
<text text-anchor="middle" dominant-baseline="middle" x="293.0" y="47.0">5</text>
<rect rx="6" ry="6" x="29.5" y="73.5" width="55" height="45" class="" />
<text text-anchor="middle" dominant-baseline="middle" x="57.0" y="96.0">q</text>
<rect rx="6" ry="6" x="88.5" y="73.5" width="55" height="45" class="" />
<text text-anchor="middle" dominant-baseline="middle" x="116.0" y="96.0">w</text>
<rect rx="6" ry="6" x="147.5" y="73.5" width="55" height="45" class="" />
<text text-anchor="middle" dominant-baseline="middle" x="175.0" y="96.0">e</text>
<rect rx="6" ry="6" x="206.5" y="73.5" width="55" height="45" class="" />
<text text-anchor="middle" dominant-baseline="middle" x="234.0" y="96.0">r</text>
<rect rx="6" ry="6" x="265.5" y="73.5" width="55" height="45" class="" />
<text text-anchor="middle" dominant-baseline="middle" x="293.0" y="96.0">t</text>
<rect rx="6" ry="6" x="29.5" y="122.5" width="55" height="45" class="" />
<text text-anchor="middle" dominant-baseline="middle" x="57.0" y="145.0">a</text>
<rect rx="6" ry="6" x="88.5" y="122.5" width="55" height="45" class="" />
<text text-anchor="middle" dominant-baseline="middle" x="116.0" y="145.0">s</text>
<rect rx="6" ry="6" x="147.5" y="122.5" width="55" height="45" class="" />
<text text-anchor="middle" dominant-baseline="middle" x="175.0" y="145.0">d</text>
<rect rx="6" ry="6" x="206.5" y="122.5" width="55" height="45" class="" />
<text text-anchor="middle" dominant-baseline="middle" x="234.0" y="145.0">f</text>
<rect rx="6" ry="6" x="265.5" y="122.5" width="55" height="45" class="" />
<text text-anchor="middle" dominant-baseline="middle" x="293.0" y="145.0">g</text>
<rect rx="6" ry="6" x="29.5" y="171.5" width="55" height="45" class="" />
<text text-anchor="middle" dominant-baseline="middle" x="57.0" y="194.0">z</text>
<rect rx="6" ry="6" x="88.5" y="171.5" width="55" height="45" class="" />
<text text-anchor="middle" dominant-baseline="middle" x="116.0" y="194.0">x</text>
<rect rx="6" ry="6" x="147.5" y="171.5" width="55" height="45" class="" />
<text text-anchor="middle" dominant-baseline="middle" x="175.0" y="194.0">c</text>
<rect rx="6" ry="6" x="206.5" y="171.5" width="55" height="45" class="" />
<text text-anchor="middle" dominant-baseline="middle" x="234.0" y="194.0">v</text>
<rect rx="6" ry="6" x="265.5" y="171.5" width="55" height="45" class="" />
<text text-anchor="middle" dominant-baseline="middle" x="293.0" y="194.0">b</text>
<rect rx="6" ry="6" x="352.0" y="24.5" width="55" height="45" class="number" />
<text text-anchor="middle" dominant-baseline="middle" x="379.5" y="47.0">6</text>
<rect rx="6" ry="6" x="411.0" y="24.5" width="55" height="45" class="number" />
<text text-anchor="middle" dominant-baseline="middle" x="438.5" y="47.0">7</text>
<rect rx="6" ry="6" x="470.0" y="24.5" width="55" height="45" class="number" />
<text text-anchor="middle" dominant-baseline="middle" x="497.5" y="47.0">8</text>
<rect rx="6" ry="6" x="529.0" y="24.5" width="55" height="45" class="number" />
<text text-anchor="middle" dominant-baseline="middle" x="556.5" y="47.0">9</text>
<rect rx="6" ry="6" x="588.0" y="24.5" width="55" height="45" class="number" />
<text text-anchor="middle" dominant-baseline="middle" x="615.5" y="47.0">0</text>
<rect rx="6" ry="6" x="352.0" y="73.5" width="55" height="45" class="" />
<text text-anchor="middle" dominant-baseline="middle" x="379.5" y="96.0">y</text>
<rect rx="6" ry="6" x="411.0" y="73.5" width="55" height="45" class="" />
<text text-anchor="middle" dominant-baseline="middle" x="438.5" y="96.0">u</text>
<rect rx="6" ry="6" x="470.0" y="73.5" width="55" height="45" class="" />
<text text-anchor="middle" dominant-baseline="middle" x="497.5" y="96.0">i</text>
<rect rx="6" ry="6" x="529.0" y="73.5" width="55" height="45" class="" />
<text text-anchor="middle" dominant-baseline="middle" x="556.5" y="96.0">o</text>
<rect rx="6" ry="6" x="588.0" y="73.5" width="55" height="45" class="" />
<text text-anchor="middle" dominant-baseline="middle" x="615.5" y="96.0">p</text>
<rect rx="6" ry="6" x="352.0" y="122.5" width="55" height="45" class="" />
<text text-anchor="middle" dominant-baseline="middle" x="379.5" y="145.0">j</text>
<rect rx="6" ry="6" x="411.0" y="122.5" width="55" height="45" class="" />
<text text-anchor="middle" dominant-baseline="middle" x="438.5" y="145.0">j</text>
<rect rx="6" ry="6" x="470.0" y="122.5" width="55" height="45" class="" />
<text text-anchor="middle" dominant-baseline="middle" x="497.5" y="145.0">k</text>
<rect rx="6" ry="6" x="529.0" y="122.5" width="55" height="45" class="" />
<text text-anchor="middle" dominant-baseline="middle" x="556.5" y="145.0">l</text>
<rect rx="6" ry="6" x="588.0" y="122.5" width="55" height="45" class="" />
<text text-anchor="middle" dominant-baseline="middle" x="615.5" y="145.0">;</text>
<rect rx="6" ry="6" x="352.0" y="171.5" width="55" height="45" class="" />
<text text-anchor="middle" dominant-baseline="middle" x="379.5" y="194.0">m</text>
<rect rx="6" ry="6" x="411.0" y="171.5" width="55" height="45" class="" />
<text text-anchor="middle" dominant-baseline="middle" x="438.5" y="194.0">n</text>
<rect rx="6" ry="6" x="470.0" y="171.5" width="55" height="45" class="" />
<text text-anchor="middle" dominant-baseline="middle" x="497.5" y="194.0">,</text>
<rect rx="6" ry="6" x="529.0" y="171.5" width="55" height="45" class="" />
<text text-anchor="middle" dominant-baseline="middle" x="556.5" y="194.0">.</text>
<rect rx="6" ry="6" x="588.0" y="171.5" width="55" height="45" class="" />
<text text-anchor="middle" dominant-baseline="middle" x="615.5" y="194.0">/</text>
<rect rx="6" ry="6" x="147.5" y="220.5" width="55" height="45" class="" />
<text text-anchor="middle" dominant-baseline="middle" x="175.0" y="243.0">del</text>
<rect rx="6" ry="6" x="206.5" y="220.5" width="55" height="45" class="" />
<text text-anchor="middle" dominant-baseline="middle" x="234.0" y="243.0">bkspc</text>
<rect rx="6" ry="6" x="265.5" y="220.5" width="55" height="45" class="" />
<text text-anchor="middle" dominant-baseline="middle" x="293.0" y="243.0">esc</text>
<rect rx="6" ry="6" x="352.0" y="220.5" width="55" height="45" class="" />
<text text-anchor="middle" dominant-baseline="middle" x="379.5" y="243.0">enter</text>
<rect rx="6" ry="6" x="411.0" y="220.5" width="55" height="45" class="" />
<text text-anchor="middle" dominant-baseline="middle" x="438.5" y="243.0">space</text>
<rect rx="6" ry="6" x="470.0" y="220.5" width="55" height="45" class="" />
<text text-anchor="middle" dominant-baseline="middle" x="497.5" y="243.0">tab</text>
<rect rx="6" ry="6" x="29.5" y="292.0" width="55" height="45" class="number" />
<text text-anchor="middle" dominant-baseline="middle" x="57.0" y="314.5">1</text>
<rect rx="6" ry="6" x="88.5" y="292.0" width="55" height="45" class="number" />
<text text-anchor="middle" dominant-baseline="middle" x="116.0" y="314.5">2</text>
<rect rx="6" ry="6" x="147.5" y="292.0" width="55" height="45" class="number" />
<text text-anchor="middle" dominant-baseline="middle" x="175.0" y="314.5">3</text>
<rect rx="6" ry="6" x="206.5" y="292.0" width="55" height="45" class="number" />
<text text-anchor="middle" dominant-baseline="middle" x="234.0" y="314.5">4</text>
<rect rx="6" ry="6" x="265.5" y="292.0" width="55" height="45" class="number" />
<text text-anchor="middle" dominant-baseline="middle" x="293.0" y="314.5">5</text>
<rect rx="6" ry="6" x="29.5" y="341.0" width="55" height="45" class="" />
<text text-anchor="middle" dominant-baseline="middle" x="57.0" y="363.5">q</text>
<rect rx="6" ry="6" x="88.5" y="341.0" width="55" height="45" class="" />
<text text-anchor="middle" dominant-baseline="middle" x="116.0" y="363.5">w</text>
<rect rx="6" ry="6" x="147.5" y="341.0" width="55" height="45" class="" />
<text text-anchor="middle" dominant-baseline="middle" x="175.0" y="363.5">e</text>
<rect rx="6" ry="6" x="206.5" y="341.0" width="55" height="45" class="" />
<text text-anchor="middle" dominant-baseline="middle" x="234.0" y="363.5">r</text>
<rect rx="6" ry="6" x="265.5" y="341.0" width="55" height="45" class="" />
<text text-anchor="middle" dominant-baseline="middle" x="293.0" y="363.5">t</text>
<rect rx="6" ry="6" x="29.5" y="390.0" width="55" height="45" class="hold" />
<text text-anchor="middle" dominant-baseline="middle" x="57.0" y="412.5">ctrl</text>
<rect rx="6" ry="6" x="88.5" y="390.0" width="55" height="45" class="hold" />
<text text-anchor="middle" dominant-baseline="middle" x="116.0" y="412.5">alt</text>
<rect rx="6" ry="6" x="147.5" y="390.0" width="55" height="45" class="hold" />
<text text-anchor="middle" dominant-baseline="middle" x="175.0" y="412.5">cmd</text>
<rect rx="6" ry="6" x="206.5" y="390.0" width="55" height="45" class="hold" />
<text text-anchor="middle" dominant-baseline="middle" x="234.0" y="412.5">shift</text>
<rect rx="6" ry="6" x="265.5" y="390.0" width="55" height="45" class="" />
<text text-anchor="middle" dominant-baseline="middle" x="293.0" y="412.5">g</text>
<rect rx="6" ry="6" x="29.5" y="439.0" width="55" height="45" class="" />
<text text-anchor="middle" dominant-baseline="middle" x="57.0" y="461.5">z</text>
<rect rx="6" ry="6" x="88.5" y="439.0" width="55" height="45" class="" />
<text text-anchor="middle" dominant-baseline="middle" x="116.0" y="461.5">x</text>
<rect rx="6" ry="6" x="147.5" y="439.0" width="55" height="45" class="" />
<text text-anchor="middle" dominant-baseline="middle" x="175.0" y="461.5">c</text>
<rect rx="6" ry="6" x="206.5" y="439.0" width="55" height="45" class="" />
<text text-anchor="middle" dominant-baseline="middle" x="234.0" y="461.5">v</text>
<rect rx="6" ry="6" x="265.5" y="439.0" width="55" height="45" class="" />
<text text-anchor="middle" dominant-baseline="middle" x="293.0" y="461.5">b</text>
<rect rx="6" ry="6" x="352.0" y="292.0" width="55" height="45" class="number" />
<text text-anchor="middle" dominant-baseline="middle" x="379.5" y="314.5">6</text>
<rect rx="6" ry="6" x="411.0" y="292.0" width="55" height="45" class="number" />
<text text-anchor="middle" dominant-baseline="middle" x="438.5" y="314.5">7</text>
<rect rx="6" ry="6" x="470.0" y="292.0" width="55" height="45" class="number" />
<text text-anchor="middle" dominant-baseline="middle" x="497.5" y="314.5">8</text>
<rect rx="6" ry="6" x="529.0" y="292.0" width="55" height="45" class="number" />
<text text-anchor="middle" dominant-baseline="middle" x="556.5" y="314.5">9</text>
<rect rx="6" ry="6" x="588.0" y="292.0" width="55" height="45" class="number" />
<text text-anchor="middle" dominant-baseline="middle" x="615.5" y="314.5">0</text>
<rect rx="6" ry="6" x="352.0" y="341.0" width="55" height="45" class="" />
<text text-anchor="middle" dominant-baseline="middle" x="379.5" y="363.5">y</text>
<rect rx="6" ry="6" x="411.0" y="341.0" width="55" height="45" class="" />
<text text-anchor="middle" dominant-baseline="middle" x="438.5" y="363.5">u</text>
<rect rx="6" ry="6" x="470.0" y="341.0" width="55" height="45" class="" />
<text text-anchor="middle" dominant-baseline="middle" x="497.5" y="363.5">i</text>
<rect rx="6" ry="6" x="529.0" y="341.0" width="55" height="45" class="" />
<text text-anchor="middle" dominant-baseline="middle" x="556.5" y="363.5">o</text>
<rect rx="6" ry="6" x="588.0" y="341.0" width="55" height="45" class="" />
<text text-anchor="middle" dominant-baseline="middle" x="615.5" y="363.5">p</text>
<rect rx="6" ry="6" x="352.0" y="390.0" width="55" height="45" class="" />
<text text-anchor="middle" dominant-baseline="middle" x="379.5" y="412.5">j</text>
<rect rx="6" ry="6" x="411.0" y="390.0" width="55" height="45" class="hold" />
<text text-anchor="middle" dominant-baseline="middle" x="438.5" y="412.5">shift</text>
<rect rx="6" ry="6" x="470.0" y="390.0" width="55" height="45" class="hold" />
<text text-anchor="middle" dominant-baseline="middle" x="497.5" y="412.5">cmd</text>
<rect rx="6" ry="6" x="529.0" y="390.0" width="55" height="45" class="hold" />
<text text-anchor="middle" dominant-baseline="middle" x="556.5" y="412.5">alt</text>
<rect rx="6" ry="6" x="588.0" y="390.0" width="55" height="45" class="hold" />
<text text-anchor="middle" dominant-baseline="middle" x="615.5" y="412.5">ctrl</text>
<rect rx="6" ry="6" x="352.0" y="439.0" width="55" height="45" class="" />
<text text-anchor="middle" dominant-baseline="middle" x="379.5" y="461.5">m</text>
<rect rx="6" ry="6" x="411.0" y="439.0" width="55" height="45" class="" />
<text text-anchor="middle" dominant-baseline="middle" x="438.5" y="461.5">n</text>
<rect rx="6" ry="6" x="470.0" y="439.0" width="55" height="45" class="" />
<text text-anchor="middle" dominant-baseline="middle" x="497.5" y="461.5">,</text>
<rect rx="6" ry="6" x="529.0" y="439.0" width="55" height="45" class="" />
<text text-anchor="middle" dominant-baseline="middle" x="556.5" y="461.5">.</text>
<rect rx="6" ry="6" x="588.0" y="439.0" width="55" height="45" class="" />
<text text-anchor="middle" dominant-baseline="middle" x="615.5" y="461.5">/</text>
<rect rx="6" ry="6" x="147.5" y="488.0" width="55" height="45" class="" />
<text text-anchor="middle" dominant-baseline="middle" x="175.0" y="510.5">del</text>
<rect rx="6" ry="6" x="206.5" y="488.0" width="55" height="45" class="" />
<text text-anchor="middle" dominant-baseline="middle" x="234.0" y="510.5">bkspc</text>
<rect rx="6" ry="6" x="265.5" y="488.0" width="55" height="45" class="" />
<text text-anchor="middle" dominant-baseline="middle" x="293.0" y="510.5">esc</text>
<rect rx="6" ry="6" x="352.0" y="488.0" width="55" height="45" class="" />
<text text-anchor="middle" dominant-baseline="middle" x="379.5" y="510.5">enter</text>
<rect rx="6" ry="6" x="411.0" y="488.0" width="55" height="45" class="" />
<text text-anchor="middle" dominant-baseline="middle" x="438.5" y="510.5">space</text>
<rect rx="6" ry="6" x="470.0" y="488.0" width="55" height="45" class="" />
<text text-anchor="middle" dominant-baseline="middle" x="497.5" y="510.5">tab</text>
<rect rx="6" ry="6" x="29.5" y="559.5" width="55" height="45" class="number" />
<text text-anchor="middle" dominant-baseline="middle" x="57.0" y="582.0">1</text>
<rect rx="6" ry="6" x="88.5" y="559.5" width="55" height="45" class="number" />
<text text-anchor="middle" dominant-baseline="middle" x="116.0" y="582.0">2</text>
<rect rx="6" ry="6" x="147.5" y="559.5" width="55" height="45" class="number" />
<text text-anchor="middle" dominant-baseline="middle" x="175.0" y="582.0">3</text>
<rect rx="6" ry="6" x="206.5" y="559.5" width="55" height="45" class="number" />
<text text-anchor="middle" dominant-baseline="middle" x="234.0" y="582.0">4</text>
<rect rx="6" ry="6" x="265.5" y="559.5" width="55" height="45" class="number" />
<text text-anchor="middle" dominant-baseline="middle" x="293.0" y="582.0">5</text>
<rect rx="6" ry="6" x="29.5" y="608.5" width="55" height="45" class="" />
<text text-anchor="middle" dominant-baseline="middle" x="57.0" y="631.0">q</text>
<rect rx="6" ry="6" x="88.5" y="608.5" width="55" height="45" class="combo" />
<text text-anchor="middle" dominant-baseline="middle" x="116.0" y="631.0">{</text>
<rect rx="6" ry="6" x="147.5" y="608.5" width="55" height="45" class="combo" />
<text text-anchor="middle" dominant-baseline="middle" x="175.0" y="631.0">{</text>
<path fill="none" stroke="#5656A8" stroke-width="4" stroke-linecap="round" d="M173.0,616.0 A55,55 0,0,0 118.0,616.0" />
<rect rx="6" ry="6" x="206.5" y="608.5" width="55" height="45" class="" />
<text text-anchor="middle" dominant-baseline="middle" x="234.0" y="631.0">r</text>
<rect rx="6" ry="6" x="265.5" y="608.5" width="55" height="45" class="" />
<text text-anchor="middle" dominant-baseline="middle" x="293.0" y="631.0">t</text>
<rect rx="6" ry="6" x="29.5" y="657.5" width="55" height="45" class="" />
<text text-anchor="middle" dominant-baseline="middle" x="57.0" y="680.0">a</text>
<rect rx="6" ry="6" x="88.5" y="657.5" width="55" height="45" class="combo" />
<text text-anchor="middle" dominant-baseline="middle" x="116.0" y="680.0">[</text>
<rect rx="6" ry="6" x="147.5" y="657.5" width="55" height="45" class="combo" />
<text text-anchor="middle" dominant-baseline="middle" x="175.0" y="680.0">[</text>
<path fill="none" stroke="#5656A8" stroke-width="4" stroke-linecap="round" d="M173.0,665.0 A55,55 0,0,0 118.0,665.0" />
<rect rx="6" ry="6" x="206.5" y="657.5" width="55" height="45" class="" />
<text text-anchor="middle" dominant-baseline="middle" x="234.0" y="680.0">f</text>
<rect rx="6" ry="6" x="265.5" y="657.5" width="55" height="45" class="" />
<text text-anchor="middle" dominant-baseline="middle" x="293.0" y="680.0">g</text>
<rect rx="6" ry="6" x="29.5" y="706.5" width="55" height="45" class="" />
<text text-anchor="middle" dominant-baseline="middle" x="57.0" y="729.0">z</text>
<rect rx="6" ry="6" x="88.5" y="706.5" width="55" height="45" class="combo" />
<text text-anchor="middle" dominant-baseline="middle" x="116.0" y="729.0">`</text>
<rect rx="6" ry="6" x="147.5" y="706.5" width="55" height="45" class="combo" />
<text text-anchor="middle" dominant-baseline="middle" x="175.0" y="729.0">`</text>
<path fill="none" stroke="#5656A8" stroke-width="4" stroke-linecap="round" d="M173.0,714.0 A55,55 0,0,0 118.0,714.0" />
<rect rx="6" ry="6" x="206.5" y="706.5" width="55" height="45" class="" />
<text text-anchor="middle" dominant-baseline="middle" x="234.0" y="729.0">v</text>
<rect rx="6" ry="6" x="265.5" y="706.5" width="55" height="45" class="" />
<text text-anchor="middle" dominant-baseline="middle" x="293.0" y="729.0">b</text>
<rect rx="6" ry="6" x="352.0" y="559.5" width="55" height="45" class="number" />
<text text-anchor="middle" dominant-baseline="middle" x="379.5" y="582.0">6</text>
<rect rx="6" ry="6" x="411.0" y="559.5" width="55" height="45" class="number" />
<text text-anchor="middle" dominant-baseline="middle" x="438.5" y="582.0">7</text>
<rect rx="6" ry="6" x="470.0" y="559.5" width="55" height="45" class="number" />
<text text-anchor="middle" dominant-baseline="middle" x="497.5" y="582.0">8</text>
<rect rx="6" ry="6" x="529.0" y="559.5" width="55" height="45" class="number" />
<text text-anchor="middle" dominant-baseline="middle" x="556.5" y="582.0">9</text>
<rect rx="6" ry="6" x="588.0" y="559.5" width="55" height="45" class="number" />
<text text-anchor="middle" dominant-baseline="middle" x="615.5" y="582.0">0</text>
<rect rx="6" ry="6" x="352.0" y="608.5" width="55" height="45" class="" />
<text text-anchor="middle" dominant-baseline="middle" x="379.5" y="631.0">y</text>
<rect rx="6" ry="6" x="411.0" y="608.5" width="55" height="45" class="" />
<text text-anchor="middle" dominant-baseline="middle" x="438.5" y="631.0">u</text>
<rect rx="6" ry="6" x="470.0" y="608.5" width="55" height="45" class="combo" />
<text text-anchor="middle" dominant-baseline="middle" x="497.5" y="631.0">=</text>
<rect rx="6" ry="6" x="529.0" y="608.5" width="55" height="45" class="combo" />
<text text-anchor="middle" dominant-baseline="middle" x="556.5" y="631.0">=</text>
<path fill="none" stroke="#5656A8" stroke-width="4" stroke-linecap="round" d="M554.5,616.0 A55,55 0,0,0 499.5,616.0" />
<rect rx="6" ry="6" x="588.0" y="608.5" width="55" height="45" class="" />
<text text-anchor="middle" dominant-baseline="middle" x="615.5" y="631.0">p</text>
<rect rx="6" ry="6" x="352.0" y="657.5" width="55" height="45" class="" />
<text text-anchor="middle" dominant-baseline="middle" x="379.5" y="680.0">j</text>
<rect rx="6" ry="6" x="411.0" y="657.5" width="55" height="45" class="" />
<text text-anchor="middle" dominant-baseline="middle" x="438.5" y="680.0">j</text>
<rect rx="6" ry="6" x="470.0" y="657.5" width="55" height="45" class="combo" />
<text text-anchor="middle" dominant-baseline="middle" x="497.5" y="680.0">'</text>
<rect rx="6" ry="6" x="529.0" y="657.5" width="55" height="45" class="combo" />
<text text-anchor="middle" dominant-baseline="middle" x="556.5" y="680.0">'</text>
<path fill="none" stroke="#5656A8" stroke-width="4" stroke-linecap="round" d="M554.5,665.0 A55,55 0,0,0 499.5,665.0" />
<rect rx="6" ry="6" x="588.0" y="657.5" width="55" height="45" class="" />
<text text-anchor="middle" dominant-baseline="middle" x="615.5" y="680.0">;</text>
<rect rx="6" ry="6" x="352.0" y="706.5" width="55" height="45" class="" />
<text text-anchor="middle" dominant-baseline="middle" x="379.5" y="729.0">m</text>
<rect rx="6" ry="6" x="411.0" y="706.5" width="55" height="45" class="" />
<text text-anchor="middle" dominant-baseline="middle" x="438.5" y="729.0">n</text>
<rect rx="6" ry="6" x="470.0" y="706.5" width="55" height="45" class="combo" />
<text text-anchor="middle" dominant-baseline="middle" x="497.5" y="729.0">\</text>
<rect rx="6" ry="6" x="529.0" y="706.5" width="55" height="45" class="combo" />
<text text-anchor="middle" dominant-baseline="middle" x="556.5" y="729.0">\</text>
<path fill="none" stroke="#5656A8" stroke-width="4" stroke-linecap="round" d="M554.5,714.0 A55,55 0,0,0 499.5,714.0" />
<rect rx="6" ry="6" x="588.0" y="706.5" width="55" height="45" class="" />
<text text-anchor="middle" dominant-baseline="middle" x="615.5" y="729.0">/</text>
<rect rx="6" ry="6" x="147.5" y="755.5" width="55" height="45" class="" />
<text text-anchor="middle" dominant-baseline="middle" x="175.0" y="778.0">del</text>
<rect rx="6" ry="6" x="206.5" y="755.5" width="55" height="45" class="" />
<text text-anchor="middle" dominant-baseline="middle" x="234.0" y="778.0">bkspc</text>
<rect rx="6" ry="6" x="265.5" y="755.5" width="55" height="45" class="" />
<text text-anchor="middle" dominant-baseline="middle" x="293.0" y="778.0">esc</text>
<rect rx="6" ry="6" x="352.0" y="755.5" width="55" height="45" class="" />
<text text-anchor="middle" dominant-baseline="middle" x="379.5" y="778.0">enter</text>
<rect rx="6" ry="6" x="411.0" y="755.5" width="55" height="45" class="" />
<text text-anchor="middle" dominant-baseline="middle" x="438.5" y="778.0">space</text>
<rect rx="6" ry="6" x="470.0" y="755.5" width="55" height="45" class="" />
<text text-anchor="middle" dominant-baseline="middle" x="497.5" y="778.0">tab</text>
<rect rx="6" ry="6" x="29.5" y="827.0" width="55" height="45" class="number" />
<text text-anchor="middle" dominant-baseline="middle" x="57.0" y="849.5">1</text>
<rect rx="6" ry="6" x="88.5" y="827.0" width="55" height="45" class="number" />
<text text-anchor="middle" dominant-baseline="middle" x="116.0" y="849.5">2</text>
<rect rx="6" ry="6" x="147.5" y="827.0" width="55" height="45" class="number" />
<text text-anchor="middle" dominant-baseline="middle" x="175.0" y="849.5">3</text>
<rect rx="6" ry="6" x="206.5" y="827.0" width="55" height="45" class="number" />
<text text-anchor="middle" dominant-baseline="middle" x="234.0" y="849.5">4</text>
<rect rx="6" ry="6" x="265.5" y="827.0" width="55" height="45" class="number" />
<text text-anchor="middle" dominant-baseline="middle" x="293.0" y="849.5">5</text>
<rect rx="6" ry="6" x="29.5" y="876.0" width="55" height="45" class="" />
<text text-anchor="middle" dominant-baseline="middle" x="57.0" y="898.5">q</text>
<rect rx="6" ry="6" x="88.5" y="876.0" width="55" height="45" class="" />
<text text-anchor="middle" dominant-baseline="middle" x="116.0" y="898.5">w</text>
<rect rx="6" ry="6" x="147.5" y="876.0" width="55" height="45" class="combo" />
<text text-anchor="middle" dominant-baseline="middle" x="175.0" y="898.5">}</text>
<rect rx="6" ry="6" x="206.5" y="876.0" width="55" height="45" class="combo" />
<text text-anchor="middle" dominant-baseline="middle" x="234.0" y="898.5">}</text>
<path fill="none" stroke="#5656A8" stroke-width="4" stroke-linecap="round" d="M232.0,883.5 A55,55 0,0,0 177.0,883.5" />
<rect rx="6" ry="6" x="265.5" y="876.0" width="55" height="45" class="" />
<text text-anchor="middle" dominant-baseline="middle" x="293.0" y="898.5">t</text>
<rect rx="6" ry="6" x="29.5" y="925.0" width="55" height="45" class="" />
<text text-anchor="middle" dominant-baseline="middle" x="57.0" y="947.5">a</text>
<rect rx="6" ry="6" x="88.5" y="925.0" width="55" height="45" class="" />
<text text-anchor="middle" dominant-baseline="middle" x="116.0" y="947.5">s</text>
<rect rx="6" ry="6" x="147.5" y="925.0" width="55" height="45" class="combo" />
<text text-anchor="middle" dominant-baseline="middle" x="175.0" y="947.5">]</text>
<rect rx="6" ry="6" x="206.5" y="925.0" width="55" height="45" class="combo" />
<text text-anchor="middle" dominant-baseline="middle" x="234.0" y="947.5">]</text>
<path fill="none" stroke="#5656A8" stroke-width="4" stroke-linecap="round" d="M232.0,932.5 A55,55 0,0,0 177.0,932.5" />
<rect rx="6" ry="6" x="265.5" y="925.0" width="55" height="45" class="" />
<text text-anchor="middle" dominant-baseline="middle" x="293.0" y="947.5">g</text>
<rect rx="6" ry="6" x="29.5" y="974.0" width="55" height="45" class="" />
<text text-anchor="middle" dominant-baseline="middle" x="57.0" y="996.5">z</text>
<rect rx="6" ry="6" x="88.5" y="974.0" width="55" height="45" class="" />
<text text-anchor="middle" dominant-baseline="middle" x="116.0" y="996.5">x</text>
<rect rx="6" ry="6" x="147.5" y="974.0" width="55" height="45" class="combo" />
<text text-anchor="middle" dominant-baseline="middle" x="175.0" y="996.5">~</text>
<rect rx="6" ry="6" x="206.5" y="974.0" width="55" height="45" class="combo" />
<text text-anchor="middle" dominant-baseline="middle" x="234.0" y="996.5">~</text>
<path fill="none" stroke="#5656A8" stroke-width="4" stroke-linecap="round" d="M232.0,981.5 A55,55 0,0,0 177.0,981.5" />
<rect rx="6" ry="6" x="265.5" y="974.0" width="55" height="45" class="" />
<text text-anchor="middle" dominant-baseline="middle" x="293.0" y="996.5">b</text>
<rect rx="6" ry="6" x="352.0" y="827.0" width="55" height="45" class="number" />
<text text-anchor="middle" dominant-baseline="middle" x="379.5" y="849.5">6</text>
<rect rx="6" ry="6" x="411.0" y="827.0" width="55" height="45" class="number" />
<text text-anchor="middle" dominant-baseline="middle" x="438.5" y="849.5">7</text>
<rect rx="6" ry="6" x="470.0" y="827.0" width="55" height="45" class="number" />
<text text-anchor="middle" dominant-baseline="middle" x="497.5" y="849.5">8</text>
<rect rx="6" ry="6" x="529.0" y="827.0" width="55" height="45" class="number" />
<text text-anchor="middle" dominant-baseline="middle" x="556.5" y="849.5">9</text>
<rect rx="6" ry="6" x="588.0" y="827.0" width="55" height="45" class="number" />
<text text-anchor="middle" dominant-baseline="middle" x="615.5" y="849.5">0</text>
<rect rx="6" ry="6" x="352.0" y="876.0" width="55" height="45" class="" />
<text text-anchor="middle" dominant-baseline="middle" x="379.5" y="898.5">y</text>
<rect rx="6" ry="6" x="411.0" y="876.0" width="55" height="45" class="combo" />
<text text-anchor="middle" dominant-baseline="middle" x="438.5" y="898.5">-</text>
<rect rx="6" ry="6" x="470.0" y="876.0" width="55" height="45" class="combo" />
<text text-anchor="middle" dominant-baseline="middle" x="497.5" y="898.5">-</text>
<path fill="none" stroke="#5656A8" stroke-width="4" stroke-linecap="round" d="M495.5,883.5 A55,55 0,0,0 440.5,883.5" />
<rect rx="6" ry="6" x="529.0" y="876.0" width="55" height="45" class="" />
<text text-anchor="middle" dominant-baseline="middle" x="556.5" y="898.5">o</text>
<rect rx="6" ry="6" x="588.0" y="876.0" width="55" height="45" class="" />
<text text-anchor="middle" dominant-baseline="middle" x="615.5" y="898.5">p</text>
<rect rx="6" ry="6" x="352.0" y="925.0" width="55" height="45" class="" />
<text text-anchor="middle" dominant-baseline="middle" x="379.5" y="947.5">j</text>
<rect rx="6" ry="6" x="411.0" y="925.0" width="55" height="45" class="" />
<text text-anchor="middle" dominant-baseline="middle" x="438.5" y="947.5">j</text>
<rect rx="6" ry="6" x="470.0" y="925.0" width="55" height="45" class="" />
<text text-anchor="middle" dominant-baseline="middle" x="497.5" y="947.5">k</text>
<rect rx="6" ry="6" x="529.0" y="925.0" width="55" height="45" class="" />
<text text-anchor="middle" dominant-baseline="middle" x="556.5" y="947.5">l</text>
<rect rx="6" ry="6" x="588.0" y="925.0" width="55" height="45" class="" />
<text text-anchor="middle" dominant-baseline="middle" x="615.5" y="947.5">;</text>
<rect rx="6" ry="6" x="352.0" y="974.0" width="55" height="45" class="" />
<text text-anchor="middle" dominant-baseline="middle" x="379.5" y="996.5">m</text>
<rect rx="6" ry="6" x="411.0" y="974.0" width="55" height="45" class="" />
<text text-anchor="middle" dominant-baseline="middle" x="438.5" y="996.5">n</text>
<rect rx="6" ry="6" x="470.0" y="974.0" width="55" height="45" class="" />
<text text-anchor="middle" dominant-baseline="middle" x="497.5" y="996.5">,</text>
<rect rx="6" ry="6" x="529.0" y="974.0" width="55" height="45" class="" />
<text text-anchor="middle" dominant-baseline="middle" x="556.5" y="996.5">.</text>
<rect rx="6" ry="6" x="588.0" y="974.0" width="55" height="45" class="" />
<text text-anchor="middle" dominant-baseline="middle" x="615.5" y="996.5">/</text>
<rect rx="6" ry="6" x="147.5" y="1023.0" width="55" height="45" class="" />
<text text-anchor="middle" dominant-baseline="middle" x="175.0" y="1045.5">del</text>
<rect rx="6" ry="6" x="206.5" y="1023.0" width="55" height="45" class="" />
<text text-anchor="middle" dominant-baseline="middle" x="234.0" y="1045.5">bkspc</text>
<rect rx="6" ry="6" x="265.5" y="1023.0" width="55" height="45" class="" />
<text text-anchor="middle" dominant-baseline="middle" x="293.0" y="1045.5">esc</text>
<rect rx="6" ry="6" x="352.0" y="1023.0" width="55" height="45" class="" />
<text text-anchor="middle" dominant-baseline="middle" x="379.5" y="1045.5">enter</text>
<rect rx="6" ry="6" x="411.0" y="1023.0" width="55" height="45" class="" />
<text text-anchor="middle" dominant-baseline="middle" x="438.5" y="1045.5">space</text>
<rect rx="6" ry="6" x="470.0" y="1023.0" width="55" height="45" class="" />
<text text-anchor="middle" dominant-baseline="middle" x="497.5" y="1045.5">tab</text>
<rect rx="6" ry="6" x="29.5" y="1094.5" width="55" height="45" class="number" />
<text text-anchor="middle" dominant-baseline="middle" x="57.0" y="1117.0">f1</text>
<rect rx="6" ry="6" x="88.5" y="1094.5" width="55" height="45" class="number" />
<text text-anchor="middle" dominant-baseline="middle" x="116.0" y="1117.0">f2</text>
<rect rx="6" ry="6" x="147.5" y="1094.5" width="55" height="45" class="number" />
<text text-anchor="middle" dominant-baseline="middle" x="175.0" y="1117.0">f3</text>
<rect rx="6" ry="6" x="206.5" y="1094.5" width="55" height="45" class="number" />
<text text-anchor="middle" dominant-baseline="middle" x="234.0" y="1117.0">f4</text>
<rect rx="6" ry="6" x="265.5" y="1094.5" width="55" height="45" class="number" />
<text text-anchor="middle" dominant-baseline="middle" x="293.0" y="1117.0">f5</text>
<rect rx="6" ry="6" x="29.5" y="1143.5" width="55" height="45" class="" />
<rect rx="6" ry="6" x="88.5" y="1143.5" width="55" height="45" class="" />
<rect rx="6" ry="6" x="147.5" y="1143.5" width="55" height="45" class="" />
<rect rx="6" ry="6" x="206.5" y="1143.5" width="55" height="45" class="" />
<rect rx="6" ry="6" x="265.5" y="1143.5" width="55" height="45" class="number" />
<text text-anchor="middle" dominant-baseline="middle" x="293.0" y="1166.0">f11</text>
<rect rx="6" ry="6" x="29.5" y="1192.5" width="55" height="45" class="" />
<text text-anchor="middle" dominant-baseline="middle" x="57.0" y="1215.0">ctrl</text>
<rect rx="6" ry="6" x="88.5" y="1192.5" width="55" height="45" class="" />
<text text-anchor="middle" dominant-baseline="middle" x="116.0" y="1215.0">alt</text>
<rect rx="6" ry="6" x="147.5" y="1192.5" width="55" height="45" class="" />
<text text-anchor="middle" dominant-baseline="middle" x="175.0" y="1215.0">cmd</text>
<rect rx="6" ry="6" x="206.5" y="1192.5" width="55" height="45" class="" />
<text text-anchor="middle" dominant-baseline="middle" x="234.0" y="1215.0">shift</text>
<rect rx="6" ry="6" x="265.5" y="1192.5" width="55" height="45" class="" />
<rect rx="6" ry="6" x="29.5" y="1241.5" width="55" height="45" class="" />
<rect rx="6" ry="6" x="88.5" y="1241.5" width="55" height="45" class="" />
<rect rx="6" ry="6" x="147.5" y="1241.5" width="55" height="45" class="" />
<rect rx="6" ry="6" x="206.5" y="1241.5" width="55" height="45" class="" />
<rect rx="6" ry="6" x="265.5" y="1241.5" width="55" height="45" class="" />
<rect rx="6" ry="6" x="352.0" y="1094.5" width="55" height="45" class="number" />
<text text-anchor="middle" dominant-baseline="middle" x="379.5" y="1117.0">f6</text>
<rect rx="6" ry="6" x="411.0" y="1094.5" width="55" height="45" class="number" />
<text text-anchor="middle" dominant-baseline="middle" x="438.5" y="1117.0">f7</text>
<rect rx="6" ry="6" x="470.0" y="1094.5" width="55" height="45" class="number" />
<text text-anchor="middle" dominant-baseline="middle" x="497.5" y="1117.0">f8</text>
<rect rx="6" ry="6" x="529.0" y="1094.5" width="55" height="45" class="number" />
<text text-anchor="middle" dominant-baseline="middle" x="556.5" y="1117.0">f9</text>
<rect rx="6" ry="6" x="588.0" y="1094.5" width="55" height="45" class="number" />
<text text-anchor="middle" dominant-baseline="middle" x="615.5" y="1117.0">f10</text>
<rect rx="6" ry="6" x="352.0" y="1143.5" width="55" height="45" class="number" />
<text text-anchor="middle" dominant-baseline="middle" x="379.5" y="1166.0">f12</text>
<rect rx="6" ry="6" x="411.0" y="1143.5" width="55" height="45" class="" />
<rect rx="6" ry="6" x="470.0" y="1143.5" width="55" height="45" class="" />
<rect rx="6" ry="6" x="529.0" y="1143.5" width="55" height="45" class="" />
<rect rx="6" ry="6" x="588.0" y="1143.5" width="55" height="45" class="" />
<rect rx="6" ry="6" x="352.0" y="1192.5" width="55" height="45" class="" />
<rect rx="6" ry="6" x="411.0" y="1192.5" width="55" height="45" class="" />
<text text-anchor="middle" dominant-baseline="middle" x="438.5" y="1215.0">shift</text>
<rect rx="6" ry="6" x="470.0" y="1192.5" width="55" height="45" class="" />
<text text-anchor="middle" dominant-baseline="middle" x="497.5" y="1215.0">cmd</text>
<rect rx="6" ry="6" x="529.0" y="1192.5" width="55" height="45" class="" />
<text text-anchor="middle" dominant-baseline="middle" x="556.5" y="1215.0">alt</text>
<rect rx="6" ry="6" x="588.0" y="1192.5" width="55" height="45" class="" />
<text text-anchor="middle" dominant-baseline="middle" x="615.5" y="1215.0">ctrl</text>
<rect rx="6" ry="6" x="352.0" y="1241.5" width="55" height="45" class="" />
<rect rx="6" ry="6" x="411.0" y="1241.5" width="55" height="45" class="" />
<rect rx="6" ry="6" x="470.0" y="1241.5" width="55" height="45" class="" />
<rect rx="6" ry="6" x="529.0" y="1241.5" width="55" height="45" class="" />
<rect rx="6" ry="6" x="588.0" y="1241.5" width="55" height="45" class="" />
<rect rx="6" ry="6" x="147.5" y="1290.5" width="55" height="45" class="hold" />
<text text-anchor="middle" dominant-baseline="middle" x="175.0" y="1313.0">func</text>
<rect rx="6" ry="6" x="206.5" y="1290.5" width="55" height="45" class="" />
<text text-anchor="middle" dominant-baseline="middle" x="234.0" y="1313.0">bkspc</text>
<rect rx="6" ry="6" x="265.5" y="1290.5" width="55" height="45" class="" />
<text text-anchor="middle" dominant-baseline="middle" x="293.0" y="1313.0">esc</text>
<rect rx="6" ry="6" x="352.0" y="1290.5" width="55" height="45" class="" />
<text text-anchor="middle" dominant-baseline="middle" x="379.5" y="1313.0">enter</text>
<rect rx="6" ry="6" x="411.0" y="1290.5" width="55" height="45" class="" />
<text text-anchor="middle" dominant-baseline="middle" x="438.5" y="1313.0">space</text>
<rect rx="6" ry="6" x="470.0" y="1290.5" width="55" height="45" class="hold" />
<text text-anchor="middle" dominant-baseline="middle" x="497.5" y="1313.0">func</text>
<rect rx="6" ry="6" x="29.5" y="1362.0" width="55" height="45" class="number" />
<rect rx="6" ry="6" x="88.5" y="1362.0" width="55" height="45" class="number" />
<rect rx="6" ry="6" x="147.5" y="1362.0" width="55" height="45" class="number" />
<rect rx="6" ry="6" x="206.5" y="1362.0" width="55" height="45" class="number" />
<rect rx="6" ry="6" x="265.5" y="1362.0" width="55" height="45" class="number" />
<rect rx="6" ry="6" x="29.5" y="1411.0" width="55" height="45" class="" />
<rect rx="6" ry="6" x="88.5" y="1411.0" width="55" height="45" class="" />
<rect rx="6" ry="6" x="147.5" y="1411.0" width="55" height="45" class="" />
<rect rx="6" ry="6" x="206.5" y="1411.0" width="55" height="45" class="" />
<rect rx="6" ry="6" x="265.5" y="1411.0" width="55" height="45" class="" />
<rect rx="6" ry="6" x="29.5" y="1460.0" width="55" height="45" class="" />
<text text-anchor="middle" dominant-baseline="middle" x="57.0" y="1482.5">ctrl</text>
<rect rx="6" ry="6" x="88.5" y="1460.0" width="55" height="45" class="" />
<text text-anchor="middle" dominant-baseline="middle" x="116.0" y="1482.5">alt</text>
<rect rx="6" ry="6" x="147.5" y="1460.0" width="55" height="45" class="" />
<text text-anchor="middle" dominant-baseline="middle" x="175.0" y="1482.5">cmd</text>
<rect rx="6" ry="6" x="206.5" y="1460.0" width="55" height="45" class="" />
<text text-anchor="middle" dominant-baseline="middle" x="234.0" y="1482.5">shift</text>
<rect rx="6" ry="6" x="265.5" y="1460.0" width="55" height="45" class="" />
<rect rx="6" ry="6" x="29.5" y="1509.0" width="55" height="45" class="" />
<rect rx="6" ry="6" x="88.5" y="1509.0" width="55" height="45" class="" />
<rect rx="6" ry="6" x="147.5" y="1509.0" width="55" height="45" class="" />
<rect rx="6" ry="6" x="206.5" y="1509.0" width="55" height="45" class="" />
<rect rx="6" ry="6" x="265.5" y="1509.0" width="55" height="45" class="" />
<rect rx="6" ry="6" x="352.0" y="1362.0" width="55" height="45" class="number" />
<rect rx="6" ry="6" x="411.0" y="1362.0" width="55" height="45" class="number" />
<text text-anchor="middle" dominant-baseline="middle" x="438.5" y="1375.5">menu</text>
<text text-anchor="middle" dominant-baseline="middle" x="438.5" y="1393.5">bar</text>
<rect rx="6" ry="6" x="470.0" y="1362.0" width="55" height="45" class="number" />
<rect rx="6" ry="6" x="529.0" y="1362.0" width="55" height="45" class="number" />
<rect rx="6" ry="6" x="588.0" y="1362.0" width="55" height="45" class="number" />
<rect rx="6" ry="6" x="352.0" y="1411.0" width="55" height="45" class="" />
<text text-anchor="middle" dominant-baseline="middle" x="379.5" y="1433.5">redo</text>
<rect rx="6" ry="6" x="411.0" y="1411.0" width="55" height="45" class="" />
<text text-anchor="middle" dominant-baseline="middle" x="438.5" y="1433.5">paste</text>
<rect rx="6" ry="6" x="470.0" y="1411.0" width="55" height="45" class="" />
<text text-anchor="middle" dominant-baseline="middle" x="497.5" y="1433.5">copy</text>
<rect rx="6" ry="6" x="529.0" y="1411.0" width="55" height="45" class="" />
<text text-anchor="middle" dominant-baseline="middle" x="556.5" y="1433.5">cut</text>
<rect rx="6" ry="6" x="588.0" y="1411.0" width="55" height="45" class="" />
<text text-anchor="middle" dominant-baseline="middle" x="615.5" y="1433.5">undo</text>
<rect rx="6" ry="6" x="352.0" y="1460.0" width="55" height="45" class="" />
<text text-anchor="middle" dominant-baseline="middle" x="379.5" y="1473.5">caps</text>
<text text-anchor="middle" dominant-baseline="middle" x="379.5" y="1491.5">lock</text>
<rect rx="6" ry="6" x="411.0" y="1460.0" width="55" height="45" class="" />
<text text-anchor="middle" dominant-baseline="middle" x="438.5" y="1482.5">left</text>
<rect rx="6" ry="6" x="470.0" y="1460.0" width="55" height="45" class="" />
<text text-anchor="middle" dominant-baseline="middle" x="497.5" y="1482.5">down</text>
<rect rx="6" ry="6" x="529.0" y="1460.0" width="55" height="45" class="" />
<text text-anchor="middle" dominant-baseline="middle" x="556.5" y="1482.5">up</text>
<rect rx="6" ry="6" x="588.0" y="1460.0" width="55" height="45" class="" />
<text text-anchor="middle" dominant-baseline="middle" x="615.5" y="1482.5">right</text>
<rect rx="6" ry="6" x="352.0" y="1509.0" width="55" height="45" class="" />
<text text-anchor="middle" dominant-baseline="middle" x="379.5" y="1531.5">ins</text>
<rect rx="6" ry="6" x="411.0" y="1509.0" width="55" height="45" class="" />
<text text-anchor="middle" dominant-baseline="middle" x="438.5" y="1531.5">home</text>
<rect rx="6" ry="6" x="470.0" y="1509.0" width="55" height="45" class="" />
<text text-anchor="middle" dominant-baseline="middle" x="497.5" y="1522.5">page</text>
<text text-anchor="middle" dominant-baseline="middle" x="497.5" y="1540.5">down</text>
<rect rx="6" ry="6" x="529.0" y="1509.0" width="55" height="45" class="" />
<text text-anchor="middle" dominant-baseline="middle" x="556.5" y="1522.5">page</text>
<text text-anchor="middle" dominant-baseline="middle" x="556.5" y="1540.5">up</text>
<rect rx="6" ry="6" x="588.0" y="1509.0" width="55" height="45" class="" />
<text text-anchor="middle" dominant-baseline="middle" x="615.5" y="1531.5">end</text>
<rect rx="6" ry="6" x="147.5" y="1558.0" width="55" height="45" class="" />
<text text-anchor="middle" dominant-baseline="middle" x="175.0" y="1580.5">del</text>
<rect rx="6" ry="6" x="206.5" y="1558.0" width="55" height="45" class="hold" />
<text text-anchor="middle" dominant-baseline="middle" x="234.0" y="1580.5">nav</text>
<rect rx="6" ry="6" x="265.5" y="1558.0" width="55" height="45" class="" />
<text text-anchor="middle" dominant-baseline="middle" x="293.0" y="1580.5">esc</text>
<rect rx="6" ry="6" x="352.0" y="1558.0" width="55" height="45" class="" />
<text text-anchor="middle" dominant-baseline="middle" x="379.5" y="1580.5">enter</text>
<rect rx="6" ry="6" x="411.0" y="1558.0" width="55" height="45" class="" />
<text text-anchor="middle" dominant-baseline="middle" x="438.5" y="1580.5">space</text>
<rect rx="6" ry="6" x="470.0" y="1558.0" width="55" height="45" class="" />
<text text-anchor="middle" dominant-baseline="middle" x="497.5" y="1580.5">tab</text>
<rect rx="6" ry="6" x="29.5" y="1629.5" width="55" height="45" class="number" />
<text text-anchor="middle" dominant-baseline="middle" x="57.0" y="1643.0">bt</text>
<text text-anchor="middle" dominant-baseline="middle" x="57.0" y="1661.0">clear</text>
<rect rx="6" ry="6" x="88.5" y="1629.5" width="55" height="45" class="number" />
<rect rx="6" ry="6" x="147.5" y="1629.5" width="55" height="45" class="number" />
<rect rx="6" ry="6" x="206.5" y="1629.5" width="55" height="45" class="number" />
<rect rx="6" ry="6" x="265.5" y="1629.5" width="55" height="45" class="number" />
<rect rx="6" ry="6" x="29.5" y="1678.5" width="55" height="45" class="" />
<rect rx="6" ry="6" x="88.5" y="1678.5" width="55" height="45" class="" />
<rect rx="6" ry="6" x="147.5" y="1678.5" width="55" height="45" class="" />
<rect rx="6" ry="6" x="206.5" y="1678.5" width="55" height="45" class="" />
<rect rx="6" ry="6" x="265.5" y="1678.5" width="55" height="45" class="" />
<rect rx="6" ry="6" x="29.5" y="1727.5" width="55" height="45" class="" />
<text text-anchor="middle" dominant-baseline="middle" x="57.0" y="1750.0">prev</text>
<rect rx="6" ry="6" x="88.5" y="1727.5" width="55" height="45" class="" />
<text text-anchor="middle" dominant-baseline="middle" x="116.0" y="1741.0">vol</text>
<text text-anchor="middle" dominant-baseline="middle" x="116.0" y="1759.0">down</text>
<rect rx="6" ry="6" x="147.5" y="1727.5" width="55" height="45" class="" />
<text text-anchor="middle" dominant-baseline="middle" x="175.0" y="1741.0">vol</text>
<text text-anchor="middle" dominant-baseline="middle" x="175.0" y="1759.0">up</text>
<rect rx="6" ry="6" x="206.5" y="1727.5" width="55" height="45" class="" />
<text text-anchor="middle" dominant-baseline="middle" x="234.0" y="1750.0">next</text>
<rect rx="6" ry="6" x="265.5" y="1727.5" width="55" height="45" class="" />
<rect rx="6" ry="6" x="29.5" y="1776.5" width="55" height="45" class="" />
<text text-anchor="middle" dominant-baseline="middle" x="57.0" y="1799.0">bt0</text>
<rect rx="6" ry="6" x="88.5" y="1776.5" width="55" height="45" class="" />
<text text-anchor="middle" dominant-baseline="middle" x="116.0" y="1799.0">bt1</text>
<rect rx="6" ry="6" x="147.5" y="1776.5" width="55" height="45" class="" />
<text text-anchor="middle" dominant-baseline="middle" x="175.0" y="1799.0">bt2</text>
<rect rx="6" ry="6" x="206.5" y="1776.5" width="55" height="45" class="" />
<text text-anchor="middle" dominant-baseline="middle" x="234.0" y="1799.0">bt3</text>
<rect rx="6" ry="6" x="265.5" y="1776.5" width="55" height="45" class="" />
<text text-anchor="middle" dominant-baseline="middle" x="293.0" y="1799.0">bt4</text>
<rect rx="6" ry="6" x="352.0" y="1629.5" width="55" height="45" class="number" />
<rect rx="6" ry="6" x="411.0" y="1629.5" width="55" height="45" class="number" />
<rect rx="6" ry="6" x="470.0" y="1629.5" width="55" height="45" class="number" />
<rect rx="6" ry="6" x="529.0" y="1629.5" width="55" height="45" class="number" />
<rect rx="6" ry="6" x="588.0" y="1629.5" width="55" height="45" class="number" />
<rect rx="6" ry="6" x="352.0" y="1678.5" width="55" height="45" class="" />
<rect rx="6" ry="6" x="411.0" y="1678.5" width="55" height="45" class="" />
<rect rx="6" ry="6" x="470.0" y="1678.5" width="55" height="45" class="" />
<rect rx="6" ry="6" x="529.0" y="1678.5" width="55" height="45" class="" />
<rect rx="6" ry="6" x="588.0" y="1678.5" width="55" height="45" class="" />
<rect rx="6" ry="6" x="352.0" y="1727.5" width="55" height="45" class="" />
<text text-anchor="middle" dominant-baseline="middle" x="379.5" y="1750.0">ctrl</text>
<rect rx="6" ry="6" x="411.0" y="1727.5" width="55" height="45" class="" />
<text text-anchor="middle" dominant-baseline="middle" x="438.5" y="1750.0">alt</text>
<rect rx="6" ry="6" x="470.0" y="1727.5" width="55" height="45" class="" />
<text text-anchor="middle" dominant-baseline="middle" x="497.5" y="1750.0">cmd</text>
<rect rx="6" ry="6" x="529.0" y="1727.5" width="55" height="45" class="" />
<text text-anchor="middle" dominant-baseline="middle" x="556.5" y="1750.0">shift</text>
<rect rx="6" ry="6" x="588.0" y="1727.5" width="55" height="45" class="" />
<rect rx="6" ry="6" x="352.0" y="1776.5" width="55" height="45" class="" />
<rect rx="6" ry="6" x="411.0" y="1776.5" width="55" height="45" class="" />
<rect rx="6" ry="6" x="470.0" y="1776.5" width="55" height="45" class="" />
<rect rx="6" ry="6" x="529.0" y="1776.5" width="55" height="45" class="" />
<rect rx="6" ry="6" x="588.0" y="1776.5" width="55" height="45" class="" />
<rect rx="6" ry="6" x="147.5" y="1825.5" width="55" height="45" class="" />
<text text-anchor="middle" dominant-baseline="middle" x="175.0" y="1848.0">stop</text>
<rect rx="6" ry="6" x="206.5" y="1825.5" width="55" height="45" class="" />
<text text-anchor="middle" dominant-baseline="middle" x="234.0" y="1839.0">play</text>
<text text-anchor="middle" dominant-baseline="middle" x="234.0" y="1857.0">pause</text>
<rect rx="6" ry="6" x="265.5" y="1825.5" width="55" height="45" class="" />
<text text-anchor="middle" dominant-baseline="middle" x="293.0" y="1848.0">mute</text>
<rect rx="6" ry="6" x="352.0" y="1825.5" width="55" height="45" class="" />
<text text-anchor="middle" dominant-baseline="middle" x="379.5" y="1848.0">enter</text>
<rect rx="6" ry="6" x="411.0" y="1825.5" width="55" height="45" class="hold" />
<text text-anchor="middle" dominant-baseline="middle" x="438.5" y="1848.0">media</text>
<rect rx="6" ry="6" x="470.0" y="1825.5" width="55" height="45" class="" />
<text text-anchor="middle" dominant-baseline="middle" x="497.5" y="1848.0">tab</text>
</svg>
